<?xml version="1.0" encoding="utf-8"?>
<!-- Generator: Adobe Illustrator 15.0.0, SVG Export Plug-In . SVG Version: 6.00 Build 0)  -->
<!DOCTYPE svg PUBLIC "-//W3C//DTD SVG 1.1//EN" "http://www.w3.org/Graphics/SVG/1.1/DTD/svg11.dtd" [
	<!ENTITY ns_extend "http://ns.adobe.com/Extensibility/1.0/">
	<!ENTITY ns_ai "http://ns.adobe.com/AdobeIllustrator/10.0/">
	<!ENTITY ns_graphs "http://ns.adobe.com/Graphs/1.0/">
	<!ENTITY ns_vars "http://ns.adobe.com/Variables/1.0/">
	<!ENTITY ns_imrep "http://ns.adobe.com/ImageReplacement/1.0/">
	<!ENTITY ns_sfw "http://ns.adobe.com/SaveForWeb/1.0/">
	<!ENTITY ns_custom "http://ns.adobe.com/GenericCustomNamespace/1.0/">
	<!ENTITY ns_adobe_xpath "http://ns.adobe.com/XPath/1.0/">
]>
<svg version="1.1" id="Layer_1" xmlns:x="&ns_extend;" xmlns:i="&ns_ai;" xmlns:graph="&ns_graphs;"
	 xmlns="http://www.w3.org/2000/svg" xmlns:xlink="http://www.w3.org/1999/xlink" x="0px" y="0px" width="280px" height="280px"
	 viewBox="0 0 280 280" enable-background="new 0 0 280 280" xml:space="preserve">
<metadata>
	<sfw  xmlns="&ns_sfw;">
		<slices></slices>
		<sliceSourceBounds  width="255.932" height="273.315" x="12.155" y="-277.157" bottomLeftOrigin="true"></sliceSourceBounds>
		<optimizationSettings>
			<targetSettings  targetSettingsID="0" fileFormat="PNG24Format">
				<PNG24Format  transparency="true" matteColor="#FFFFFF" noMatteColor="false" interlaced="true" filtered="false">
					</PNG24Format>
			</targetSettings>
		</optimizationSettings>
	</sfw>
</metadata>
<g>
	<g>
		<g>
			<path opacity="0.7" fill="#FFFFFF" enable-background="new    " d="M239.38,206.386l3.216-11.362
				c-8.877,7.575-18.608,14.213-29.033,19.668l1.914,3.789l-1.344,0.691l-4.235-2.606c-0.122,0.041-0.244,0.123-0.325,0.163
				l1.914,3.787l-1.263,0.611l-1.913-3.829c-0.367,0.164-0.734,0.366-1.1,0.531c0.081,0.161,0.161,0.325,0.243,0.528
				c0.408,0.896,0.53,1.67,0.367,2.443l5.009,10.749c15.636-7.248,29.971-16.775,42.633-28.178L239.38,206.386z"/>
		</g>
		<g>
			<path opacity="0.7" fill="#FFFFFF" enable-background="new    " d="M72.02,221.614c-0.285-0.284-0.448-0.61-0.529-0.937
				c-0.082-0.326-0.082-0.65-0.041-0.936c0.081-0.448,0.326-1.018,0.651-1.792l0.326-0.733c-0.488-0.244-0.936-0.448-1.425-0.692
				l-0.692,1.344c-0.285,0.53-0.529,0.937-0.773,1.182c-0.326,0.326-0.734,0.487-1.182,0.57c-0.448,0.039-0.977-0.042-1.506-0.326
				c-0.652-0.326-1.059-0.774-1.222-1.304c-0.163-0.528-0.082-1.18,0.286-1.873l1.343,0.489c-0.163,0.406-0.244,0.691-0.244,0.896
				c0.041,0.327,0.163,0.529,0.489,0.691c0.285,0.164,0.57,0.164,0.773,0.083c0.204-0.122,0.448-0.447,0.733-0.979l0.733-1.425
				c-11.279-5.702-21.745-12.705-31.272-20.85l3.217,11.565l-16.125-3.217c12.664,11.402,26.998,20.93,42.634,28.178l4.438-9.527
				C72.345,221.94,72.142,221.778,72.02,221.614z"/>
		</g>
		<g>
			<path fill="#FFFFFF" stroke="#FFFFFF" stroke-width="0.3023" stroke-miterlimit="10" d="M253.794,143.27
				c1.956,3.623-0.039,5.985-2.524,8.184c1.589,3.625,1.06,5.702-3.786,7.086c0.243,0.407,0.487,0.814,0.691,1.222
				c0.978,1.914,0.651,3.665-1.018,5.049c-1.141,0.978-2.525,1.547-3.95,1.996c-0.488,0.163-0.978,0.324-1.669,0.569
				c0.366,0.448,0.569,0.896,0.936,1.141c1.101,0.854,1.548,2.117,0.855,3.421c-0.366,0.691-0.936,1.384-1.629,1.832
				c-1.873,1.222-3.95,1.914-6.189,1.793c-1.506-0.043-3.053-0.165-4.682-0.245c-2.241,3.339-4.358,6.84-7.046,10.139
				c-0.813-1.18-1.506-2.239-2.199-3.299c2.281-3.135,4.562-6.23,6.882-9.406c-2.036-1.058-3.542-2.523-4.641-4.315
				c-1.507-2.403-1.752-5.009-1.101-7.696c0.489-1.996,1.832-3.136,3.868-3.421c0.203-0.04,0.407-0.08,0.693-0.123
				c-1.019-3.298,0.732-5.374,3.054-7.084c-0.367-3.299,0.081-4.235,2.85-5.701c0-0.571-0.081-1.223,0-1.873
				c0.204-1.629,0.855-3.135,1.873-4.398c0.612-0.733,0.773-1.385,0.49-2.361c-0.449-1.426-0.449-2.932,0.122-4.398
				c0.244-0.651,0.528-1.343,1.018-1.792c0.813-0.774,1.018-1.506,0.855-2.647c-0.164-1.262-0.082-2.606,0.121-3.909
				c0.244-1.466,0.937-2.647,2.729-2.565c0.123,0,0.284-0.163,0.57-0.326c-0.366-0.366-0.692-0.61-0.978-0.937
				c-0.611-0.651-1.304-1.221-1.751-1.954c-1.059-1.71-0.163-3.787,1.791-4.357c1.019-0.285,1.264-0.651,0.651-1.425
				c-1.791-2.322-1.547-4.806-0.529-7.33c0.123-0.326,0.285-0.652,0.449-0.937c0-0.041,0-0.081,0-0.244
				c-2.402-1.792-3.218-4.154-2.118-7.208c-2.402-2.28-3.257-5.049-2.239-8.348c-1.304-0.692-2.688-1.303-3.177-2.81
				c-0.488-1.506,0.204-2.809,1.06-4.153c-2.769-1.384-3.462-3.787-3.42-6.678c-3.707-1.059-3.543-3.909-2.933-6.882
				c-0.57-0.285-1.182-0.488-1.67-0.814c-0.937-0.61-1.913-1.222-2.729-1.995c-1.384-1.385-1.792-3.054-1.1-4.927
				c0.082-0.204,0.164-0.407,0.244-0.652c-0.488-0.204-0.937-0.366-1.343-0.57c-0.978-0.57-2.036-1.059-2.932-1.751
				c-1.425-1.1-2.24-2.565-2.077-4.438c0-0.163,0-0.326-0.04-0.57c-0.408-0.163-0.815-0.285-1.223-0.489
				c-0.896-0.488-1.792-0.896-2.605-1.506c-1.465-1.14-1.955-2.729-1.588-4.561c0.04-0.245,0.123-0.529,0.162-0.774
				c0-0.041-0.039-0.081-0.082-0.204c-0.773-0.163-1.587-0.325-2.36-0.53c-1.1-0.325-2.159-0.691-3.218-1.099
				c-1.547-0.651-2.606-1.833-3.339-3.379c-1.303-2.851,0.122-5.131,3.218-5.294c1.222-0.041,2.36,0.326,3.297,1.018
				c1.1,0.855,2.118,1.833,3.136,2.769c0.327,0.286,0.57,0.652,0.937,1.1c0.122-0.489,0.245-0.814,0.326-1.181
				c0.489-1.995,3.543-2.851,4.928-0.977c0.569,0.773,1.099,1.588,1.425,2.484c0.489,1.221,0.733,2.524,1.1,3.747
				c0.122,0.407,0.203,0.813,0.365,1.466c0.49-0.326,0.855-0.489,1.141-0.774c1.06-1.181,2.24-1.425,3.584-0.529
				c0.651,0.407,1.262,0.978,1.669,1.629c0.611,0.977,1.1,2.076,1.588,3.135c0.163,0.448,0.407,0.733,0.815,0.651
				c1.547-0.245,2.321,0.815,2.973,1.914c0.691,1.181,0.813,2.484,0.936,3.788c0.042,0.285,0.042,0.61,0.082,1.018
				c0.407-0.204,0.733-0.367,1.1-0.53c1.384-0.651,2.606-0.366,3.42,0.937c0.367,0.57,0.692,1.262,0.773,1.914
				c0.244,1.954,0.326,3.909,0.489,5.863c0.041,0.286,0.081,0.57,0.122,0.896c0.285,0,0.529,0.041,0.732,0
				c1.182-0.244,1.547-0.123,2.159,0.855c0.773,1.262,1.018,2.688,1.262,4.113c0.082,0.488,0.163,0.937,0.245,1.506
				c0.366-0.122,0.692-0.285,1.019-0.326c0.65-0.122,1.261-0.326,1.913-0.326c2.402,0,3.909,1.874,3.38,4.153
				c-0.164,0.692-0.611,1.344-0.938,1.996c-0.244,0.448-0.488,0.896-0.813,1.466c0.447,0.204,0.732,0.366,1.059,0.407
				c1.385,0.244,2.117,1.14,2.524,2.403c0.447,1.384,0.244,2.769-0.244,4.113c-0.163,0.448-0.366,0.896-0.448,1.343
				c-0.122,0.692,0.122,0.978,0.814,1.059c2.646,0.204,4.112,1.955,3.665,4.561c-0.203,1.221-0.773,2.402-1.182,3.583
				c-0.162,0.408-0.407,0.773-0.651,1.263c1.711,0.733,3.055,1.71,3.38,3.665c0.285,1.792-0.325,3.339-0.977,5.008
				c0.366,0.204,0.691,0.367,1.018,0.53c1.425,0.814,2.199,2.077,2.281,3.747c0.122,2.036-0.612,3.868-1.508,5.619
				c-0.244,0.489-0.489,0.977-0.855,1.669c0.53,0.122,0.896,0.285,1.264,0.244c0.65-0.122,0.977,0.204,1.344,0.611
				c1.018,1.222,1.14,2.647,0.651,4.072c-0.326,0.896-0.814,1.75-1.222,2.605c0.04,0.041,0.04,0.163,0.081,0.205
				c1.995,2.198,1.873,5.13-0.489,7.533c-0.814,0.855-1.751,1.547-2.646,2.361C259.251,138.953,258.884,140.418,253.794,143.27z
				 M245.732,100.228c-0.896,0.367-1.752,0.082-2.484-0.407c-0.896-0.651-1.71-1.466-2.566-2.199
				c-0.161-0.163-0.325-0.326-0.732-0.692c0,0.814-0.08,1.303,0,1.792c0.245,1.424,1.1,2.442,2.199,3.297
				c0.732,0.57,1.506,1.059,2.28,1.507c0.325,0.203,0.814,0.407,1.018,0.285c0.245-0.122,0.367-0.652,0.367-1.018
				c0.081-0.774,0.041-1.548,0.081-2.321c0.041-0.082,0.081-0.163,0.122-0.285C245.936,100.228,245.854,100.228,245.732,100.228z
				 M229.037,171.61c1.709-1.67,2.321-3.584,2.117-5.782c-0.082-0.611-0.122-1.222-0.082-1.832c0-2.24-1.261-3.543-3.217-4.316
				c-1.547-0.611-3.012,0-3.461,1.587c-0.569,2.037-0.611,4.072,0.61,5.906C226.064,168.842,227.488,170.268,229.037,171.61z
				 M245.732,133.822c0.325-1.547,0.569-2.769,0.813-3.991c0.205-0.896,0.164-1.71-0.202-2.565c-0.978-2.239-2.28-4.113-4.683-5.008
				c-0.979-0.366-1.385-0.244-2.077,0.774c-0.163,0.204-0.244,0.489-0.326,0.732c-0.528,1.71-0.122,3.38,0.326,5.009
				c0.081,0.285,0.489,0.448,0.733,0.651c1.261,0.937,2.564,1.833,3.786,2.769C244.672,132.601,245.08,133.13,245.732,133.822z
				 M240.521,149.988c0.161-0.285,0.325-0.57,0.406-0.815c0.528-1.424,0.978-2.891,1.589-4.274c0.528-1.182,0.202-2.117-0.49-3.014
				c-1.018-1.303-2.401-2.158-3.868-2.81c-0.813-0.326-1.303-0.164-1.791,0.57c-0.407,0.571-0.855,1.14-1.1,1.75
				c-0.244,0.529-0.365,1.182-0.326,1.752c0.122,1.058,0.529,1.995,1.304,2.769c1.304,1.221,2.524,2.524,3.786,3.787
				C240.112,149.824,240.316,149.866,240.521,149.988z M251.921,120.425c1.873-1.71,3.503-3.339,4.276-5.538
				c0.488-1.303,0.813-2.647,1.1-4.032c0.162-0.896,0.202-1.833,0.081-2.728c-0.163-1.181-1.345-1.669-2.24-0.896
				c-1.14,0.937-2.199,1.996-3.217,3.054c-0.243,0.245-0.325,0.692-0.325,1.059c0.082,2.769,0.162,5.579,0.285,8.348
				C251.84,119.814,251.84,119.977,251.921,120.425z M243.776,141.029c0.408-1.425,0.733-2.647,1.1-3.868
				c0.164-0.489-0.081-0.855-0.366-1.181c-1.14-1.263-2.239-2.565-3.461-3.787c-0.528-0.53-1.18-0.937-1.832-1.263
				c-0.733-0.366-1.222-0.122-1.589,0.611c-0.162,0.326-0.366,0.733-0.406,1.1c-0.164,1.384-0.164,2.769,0.244,4.072
				c1.181,0.61,2.32,1.058,3.338,1.71C241.822,139.157,242.678,140.052,243.776,141.029z M248.989,136.184
				c0.448-0.204,0.815-0.244,0.977-0.448c0.612-0.814,1.547-1.099,2.403-1.547c1.629-0.896,3.216-1.914,4.561-3.258
				c1.141-1.14,1.67-2.524,1.793-4.071c0.122-1.06-0.408-1.507-1.426-1.141c-0.571,0.204-1.1,0.529-1.59,0.896
				c-1.587,1.14-3.134,2.321-4.682,3.502c-0.244,0.203-0.53,0.488-0.61,0.773C249.927,132.601,249.478,134.27,248.989,136.184z
				 M247.483,113.462c-0.082-0.529-0.164-1.344-0.326-2.158c-0.204-1.018-0.529-2.036-0.733-3.014
				c-0.326-1.425-1.14-2.443-2.483-2.972c-1.507-0.57-2.933,0.366-2.851,1.955c0.04,0.977,0.285,2.036,0.732,2.851
				c1.059,1.792,2.28,3.502,3.462,5.212c0.04,0.081,0.122,0.122,0.162,0.203c0.367,0.366,0.815,0.529,1.304,0.245
				c0.447-0.245,0.813-0.53,0.691-1.1C247.441,114.357,247.483,114.073,247.483,113.462z M246.994,142.332
				c0.407,0.123,0.692,0.285,0.977,0.326c2.892,0.162,5.416-0.855,7.614-2.647c1.101-0.896,1.061-2.117,0.165-3.42
				c-0.693-1.018-1.712-1.303-3.014-0.733c-0.489,0.204-0.979,0.407-1.385,0.773c-1.182,1.018-2.321,2.077-3.503,3.177
				c-0.122,0.122-0.162,0.285-0.203,0.448C247.441,140.866,247.238,141.518,246.994,142.332z M236.244,158.133
				c0.813-0.082,1.059-0.408,1.262-0.896c0.285-0.774,0.651-1.508,0.978-2.281c0.123-0.326,0.285-0.651,0.325-0.978
				c0.367-2.851-2.116-6.394-4.968-7.045c-0.773-0.163-1.221,0.042-1.547,0.611c-0.569,1.059-0.326,2.443,0.57,3.298
				c1.71,1.71,2.85,3.705,3.095,6.19C235.959,157.398,236.122,157.725,236.244,158.133z M230.585,152.227
				c-2.607,1.467-2.811,3.747-0.652,5.741c1.466,1.305,2.483,2.893,2.891,4.888c0.122,0.651,0.366,1.344,0.61,2.239
				c0.285-0.611,0.571-0.977,0.571-1.343c0.04-2.403,0.203-4.806,0-7.208C233.883,154.467,232.62,152.92,230.585,152.227z
				 M231.887,173.564c1.954,0.285,3.705,0.163,5.416-0.122c0.854-0.122,1.71-0.326,2.524-0.651c1.181-0.448,1.67-1.263,1.589-2.32
				c-0.082-0.978-0.773-1.793-1.874-2.118c-1.588-0.488-3.094,0-4.602,0.569c-0.204,0.082-0.326,0.286-0.447,0.448
				C233.679,170.715,232.864,172.059,231.887,173.564z M243.492,151.982c0.082,0.083,0.162,0.164,0.244,0.244
				c1.996-0.773,3.99-1.506,5.946-2.36c1.302-0.57,2.36-1.508,3.054-2.769c0.569-1.019,0.202-2.077-0.896-2.485
				c-0.407-0.162-0.937-0.081-1.384,0c-2.281,0.448-3.666,2.24-5.416,3.503c-0.082,0.04-0.082,0.122-0.123,0.203
				C244.429,149.54,243.94,150.762,243.492,151.982z M236.284,166.602c0.815-0.122,1.385-0.163,1.915-0.325
				c1.831-0.529,3.705-1.019,5.497-1.629c1.019-0.366,1.914-1.019,2.565-1.995c0.773-1.182,0.447-2.077-0.896-2.321
				c-1.344-0.285-2.688-0.366-3.91,0.488c-0.732,0.489-1.506,0.896-2.238,1.386c-0.286,0.202-0.611,0.405-0.773,0.691
				C237.75,164.036,237.1,165.217,236.284,166.602z M247.075,90.17c0.082,0.041,0.204,0.082,0.286,0.163
				c0.122-0.163,0.244-0.367,0.365-0.53c1.792-2.443,2.403-5.212,2.239-8.144c-0.039-0.448-0.202-0.937-0.447-1.344
				c-0.652-1.221-1.507-1.302-2.524-0.366c-1.14,1.059-1.467,2.524-1.873,3.95c-0.041,0.163,0,0.367,0.041,0.53
				C245.813,86.301,246.424,88.215,247.075,90.17z M211.731,42.201c0.608-0.855,0.651-0.896,0.243-1.506
				c-0.937-1.506-1.995-2.851-3.38-3.95c-0.896-0.733-1.873-1.263-3.054-1.426c-1.385-0.162-2.24,0.693-2.159,2.077
				c0.041,0.732,0.286,1.425,0.896,1.833c0.937,0.651,1.915,1.384,2.972,1.792C208.677,41.591,210.265,41.835,211.731,42.201z
				 M249.234,98.11c1.791-1.222,3.42-3.135,4.03-4.887c0.285-0.855,0.367-1.792,0.448-2.687c0.081-0.611-0.244-1.059-0.814-1.385
				c-1.466-0.855-2.688-0.448-3.38,1.14c-0.407,0.855-0.896,1.669-1.344,2.525c-0.122,0.244-0.204,0.57-0.163,0.855
				C248.419,95.138,248.826,96.563,249.234,98.11z M251.229,108.168c0.936-1.059,1.75-1.873,2.483-2.769
				c0.896-1.099,1.589-2.321,1.75-3.746c0.083-0.733,0.083-1.629-0.203-2.281c-0.692-1.669-2.117-1.792-3.217-0.326
				c-0.61,0.855-1.14,1.751-1.628,2.646c-0.163,0.286-0.163,0.733-0.081,1.1C250.578,104.463,250.862,106.132,251.229,108.168z
				 M245.365,96.318c-0.244-0.855-0.448-1.751-0.773-2.606c-0.938-2.687-3.137-3.828-5.661-4.52
				c-1.181-0.326-1.954,0.611-1.587,1.751c0.447,1.425,1.385,2.606,2.483,3.624c0.245,0.204,0.61,0.326,0.938,0.367
				C242.394,95.138,243.858,95.545,245.365,96.318z M247.157,124.416c0.162-0.285,0.244-0.326,0.244-0.407
				c0.04-0.367,0.04-0.692,0.082-1.059c0.365-2.077-0.489-3.706-1.873-5.13c-0.773-0.774-1.548-1.548-2.403-2.24
				c-0.448-0.407-1.018-0.692-1.547-0.977c-0.57-0.326-1.101-0.122-1.548,0.285c-0.448,0.407-0.448,0.977-0.122,1.425
				c0.407,0.611,0.855,1.222,1.344,1.751c1.385,1.507,2.81,2.973,4.193,4.479C246.058,123.113,246.545,123.723,247.157,124.416z
				 M240.56,158.742c2.525-0.569,4.888-0.936,7.046-1.954c0.977-0.448,1.872-1.141,2.402-2.158c0.284-0.529,0.366-1.1,0-1.63
				c-0.366-0.528-0.938-0.283-1.426-0.243c-0.04,0-0.081,0-0.122,0.041c-2.198,0.489-4.153,1.547-6.108,2.605
				c-0.203,0.122-0.406,0.326-0.529,0.57C241.416,156.788,241.049,157.685,240.56,158.742z M226.43,52.748
				c0.57-1.669,0.815-3.257,0.408-4.845c-0.367-1.344-1.099-2.565-2.199-3.502c-0.692-0.611-1.221-0.57-1.669,0.041
				c-0.815,1.099-1.059,2.362-0.938,3.705c0,0.163,0.122,0.326,0.245,0.448C223.62,49.979,224.965,51.323,226.43,52.748z
				 M242.963,88.704c-0.569-1.547-1.019-2.851-1.547-4.113c-0.773-2.035-3.788-3.094-5.702-2.076
				c-0.978,0.489-1.18,1.221-0.447,1.995c0.652,0.693,1.466,1.263,2.281,1.71c1.465,0.773,2.973,1.425,4.478,2.117
				C242.229,88.419,242.434,88.5,242.963,88.704z M243.858,81.17c0.408-0.611,0.692-1.018,0.937-1.466
				c0.896-1.547,1.67-3.176,2.729-4.601c0.611-0.814,0.651-1.588,0.447-2.443c-0.244-0.977-0.936-1.303-1.913-1.018
				c-1.141,0.367-1.791,1.181-2.199,2.281c-0.651,1.832-0.733,3.746-0.569,5.7C243.289,80.071,243.574,80.479,243.858,81.17z
				 M239.542,79.949c-0.407-0.978-0.773-1.833-1.181-2.688c-0.978-2.158-1.059-2.199-3.38-2.199c-0.285,0-0.61,0-0.896,0.041
				c-1.385,0.122-1.71,0.733-1.1,2.036C234.086,79.501,236.57,80.641,239.542,79.949z M227.204,59.711
				c-0.896,0.082-1.752,0.122-2.605,0.204c-0.773,0.081-1.019,0.407-0.773,1.14c0.121,0.367,0.284,0.733,0.488,1.059
				c1.343,2.036,3.298,3.217,5.7,3.502c0.528,0.082,1.059-0.082,1.751-0.123C230.136,63.457,228.67,61.584,227.204,59.711z
				 M233.149,67.326c-0.489,0.285-0.855,0.529-1.263,0.692c-0.406,0.122-0.854,0.163-1.263,0.245
				c-1.1,0.203-1.587,0.937-1.181,1.995c0.529,1.425,1.466,2.484,3.095,2.605c1.141,0.082,2.321,0.042,3.584-0.366
				C235.104,70.706,234.127,68.995,233.149,67.326z M236.773,66.552c0.163-0.611,0.448-1.141,0.407-1.669
				c-0.081-2.444-0.204-4.887-0.326-7.33c-0.04-0.448-0.203-0.937-0.406-1.384c-0.326-0.692-0.896-0.692-1.263-0.041
				c-0.123,0.203-0.245,0.488-0.284,0.733c-0.165,1.303-0.367,2.606-0.449,3.909C234.33,63.009,235.022,64.923,236.773,66.552z
				 M251.474,126.125c0.447-0.326,0.896-0.57,1.14-0.937c0.366-0.57,0.855-0.977,1.466-1.221c0.854-0.367,1.711-0.652,2.566-0.978
				c0.284-0.122,0.61-0.203,0.773-0.407c0.529-0.774,1.059-1.588,1.507-2.444c0.244-0.448,0.325-1.059-0.122-1.466
				c-0.489-0.448-1.141-0.529-1.711-0.163c-0.651,0.448-1.303,1.018-1.833,1.628c-1.14,1.303-2.198,2.729-3.339,4.031
				C251.433,124.701,251.27,125.271,251.474,126.125z M219.997,50.956c-0.53,0.285-0.855,0.448-1.182,0.652
				c-0.732,0.407-0.937,0.814-0.651,1.588c0.162,0.448,0.407,0.896,0.733,1.181c0.733,0.61,1.507,1.14,2.28,1.71
				c0.773,0.529,1.629,0.978,2.402,1.547c0.651,0.448,1.059,0.326,1.221-0.407c0.043-0.285-0.04-0.692-0.244-0.936
				C223.051,54.499,221.545,52.789,219.997,50.956z M240.887,74.818c0.121,0,0.203,0,0.325,0c0.326-0.814,0.732-1.588,0.896-2.403
				c0.448-2.28-0.487-4.357-1.343-6.434c-0.083-0.203-0.57-0.489-0.692-0.448c-0.245,0.122-0.53,0.448-0.57,0.733
				c-0.122,1.262-0.245,2.524-0.245,3.787c0,0.733,0.123,1.466,0.367,2.159C239.99,73.108,240.479,73.963,240.887,74.818z
				 M214.174,40.613c1.425,1.426,2.851,2.811,4.316,4.235c0.081-0.041,0.162-0.081,0.285-0.122c0-0.448,0.04-0.937,0-1.385
				c-0.204-1.914-0.896-3.624-1.833-5.252c-0.326-0.57-0.813-0.937-1.466-0.855c-0.733,0.082-0.773,0.692-0.855,1.263
				C214.458,39.147,214.337,39.799,214.174,40.613z M231.439,59.263c0.773-2.769-0.163-7.899-1.671-9.243
				c-0.528,0.408-0.569,1.018-0.609,1.588c-0.082,1.181-0.245,2.321-0.326,3.502c0,0.326,0.04,0.692,0.204,0.977
				C229.769,57.105,230.542,58.083,231.439,59.263z M218.002,49.083c-1.67-1.75-3.381-3.257-5.294-4.763
				C212.097,47.414,214.947,49.979,218.002,49.083z"/>
			<path fill="#FFFFFF" stroke="#FFFFFF" stroke-width="0.3023" stroke-miterlimit="10" d="M54.51,157.48
				c0.163,0.081,0.244,0.162,0.326,0.162c2.646,0.245,4.194,1.996,4.479,4.765c0.448,4.317-1.344,7.533-4.764,9.978
				c-0.366,0.243-0.733,0.447-1.222,0.773c2.28,3.134,4.52,6.188,6.841,9.324c-0.652,1.019-1.344,2.076-2.158,3.258
				c-2.769-3.176-4.805-6.719-7.126-10.099c-1.466,0.081-2.973,0.203-4.439,0.284c-2.158,0.122-4.153-0.529-6.026-1.547
				c-0.61-0.325-1.141-0.814-1.588-1.343c-0.57-0.651-0.814-1.426-0.732-2.321c0.082-0.855,0.285-1.629,1.262-1.955
				c0.285-0.122,0.448-0.569,0.773-0.978c-0.488-0.203-0.855-0.326-1.181-0.447c-1.181-0.488-2.402-0.896-3.461-1.507
				c-2.729-1.629-3.217-3.705-1.547-6.394c0.081-0.162,0.163-0.284,0.285-0.528c-0.367-0.122-0.651-0.204-0.937-0.326
				c-0.692-0.285-1.384-0.529-2.036-0.896c-1.425-0.896-1.914-2.199-1.506-3.828c0.163-0.611,0.407-1.222,0.733-2.117
				c-0.245-0.164-0.652-0.367-0.896-0.692c-0.692-0.773-1.385-1.589-1.914-2.484c-0.855-1.506-0.733-2.605,0.203-4.886
				c-5.09-3.055-5.538-4.806-2.281-9.326c-0.325-0.244-0.691-0.488-0.977-0.814c-0.855-0.856-1.833-1.629-2.565-2.606
				c-1.466-1.995-1.384-4.031,0.041-6.067c0.163-0.204,0.285-0.407,0.407-0.57c-0.448-0.896-0.896-1.669-1.221-2.524
				c-0.53-1.385-0.448-2.769,0.488-3.991c0.367-0.529,0.773-0.896,1.548-0.773c0.326,0.041,0.651-0.122,1.181-0.203
				c-0.285-0.57-0.448-0.978-0.652-1.385c-0.733-1.385-1.384-2.851-1.588-4.398c-0.366-2.361,0.285-4.602,2.973-5.62
				c0.081-0.041,0.123-0.122,0.204-0.163c-0.286-0.977-0.651-1.914-0.814-2.892c-0.529-2.769,0.326-4.356,2.891-5.578
				c0.122-0.041,0.204-0.163,0.408-0.286c-0.204-0.366-0.408-0.732-0.57-1.14c-0.448-1.262-1.018-2.524-1.262-3.828
				c-0.489-2.524,1.099-4.357,3.543-4.52c0.732-0.04,1.018-0.325,0.855-1.099c-0.082-0.367-0.204-0.733-0.367-1.1
				c-0.448-0.978-0.57-1.996-0.529-3.054c0.081-1.995,0.937-3.095,2.932-3.624c0.773-0.204,0.896-0.529,0.489-1.262
				c-0.163-0.285-0.366-0.489-0.529-0.774c-0.285-0.529-0.611-1.059-0.774-1.629c-0.733-2.606,1.303-4.846,4.032-4.357
				c0.733,0.122,1.425,0.407,2.199,0.652c0.203-0.978,0.326-1.955,0.57-2.892c0.204-0.936,0.489-1.833,0.896-2.646
				c0.53-1.1,0.978-1.221,2.199-1.018c0.204,0.041,0.407,0,0.774,0c0-0.407,0.041-0.773,0.041-1.181
				c0.163-1.873,0.285-3.747,0.488-5.62c0.082-0.366,0.204-0.773,0.407-1.181c0.936-1.995,2.321-2.443,4.235-1.384
				c0.163,0.081,0.366,0.204,0.57,0.285c0.122-0.978,0.122-1.914,0.366-2.769c0.285-0.937,0.652-1.914,1.181-2.728
				c0.488-0.815,1.222-1.385,2.28-1.181c0.53,0.082,0.814-0.163,1.059-0.733c0.529-1.222,1.181-2.443,1.914-3.542
				c0.529-0.815,1.344-1.385,2.321-1.588c0.978-0.204,1.833-0.041,2.443,0.814c0.285,0.407,0.57,0.814,1.303,0.651
				c0.082-0.367,0.204-0.814,0.326-1.262c0.366-1.263,0.652-2.524,1.1-3.747c0.326-0.854,0.855-1.628,1.384-2.362
				c0.692-0.936,1.67-1.262,2.81-0.977c1.1,0.244,1.873,0.896,2.158,2.036c0.082,0.326,0.163,0.651,0.285,1.099
				c0.326-0.407,0.611-0.692,0.896-1.018c1.1-1.303,2.321-2.484,3.869-3.258c1.547-0.774,3.095-0.855,4.642-0.041
				c1.466,0.774,2.077,1.996,1.629,3.584c-0.53,1.873-1.548,3.379-3.38,4.316c-1.67,0.854-3.42,1.303-5.212,1.669
				c-0.245,0.04-0.489,0.122-0.774,0.163c0.041,0.325,0.082,0.57,0.122,0.814c0.53,2.077-0.163,3.705-1.832,4.928
				c-0.773,0.569-1.67,0.936-2.524,1.384c-0.285,0.163-0.651,0.245-0.978,0.408c0.326,3.135-1.466,4.886-3.909,6.189
				c-0.732,0.367-1.506,0.692-2.361,1.059c0.081,0.285,0.163,0.53,0.244,0.814c0.611,1.792,0.163,3.38-1.059,4.724
				c-0.977,1.1-2.239,1.833-3.542,2.443c-0.326,0.122-0.61,0.326-0.896,0.448c0.448,4.846,0.123,5.579-3.054,6.963
				c0.041,2.688-0.57,5.171-3.38,6.597c0.692,1.303,1.507,2.565,1.059,4.072c-0.448,1.547-1.792,2.199-3.135,2.81
				c0.326,1.548,0.569,3.014,0.163,4.561c-0.407,1.507-1.303,2.728-2.443,3.828c1.058,2.973,0.407,5.375-2.158,7.249
				c0.122,0.326,0.285,0.651,0.367,0.977c0.285,1.059,0.692,2.077,0.854,3.136c0.245,1.588-0.244,3.013-1.221,4.315
				c-0.651,0.855-0.489,1.181,0.489,1.507c2.321,0.733,3.054,2.932,1.629,4.846c-0.448,0.57-1.059,1.059-1.588,1.588
				c-0.245,0.244-0.529,0.529-0.937,0.937c0.448,0.123,0.652,0.204,0.815,0.204c1.262-0.081,1.914,0.692,2.321,1.751
				c0.692,1.628,0.488,3.338,0.366,5.049c-0.041,0.407-0.122,0.774-0.163,1.1c0.082,0.122,0.082,0.204,0.163,0.285
				c2.199,1.914,2.688,4.316,2.077,7.044c-0.204,0.978-0.163,1.67,0.489,2.485c1.425,1.791,2.117,3.909,1.914,6.311
				c1.1,0.489,2.118,1.059,2.647,2.198c0.489,1.1,0.367,2.199,0.122,3.381C53.695,152.227,55.527,154.183,54.51,157.48z
				 M35.9,100.635c-0.041-0.041-0.123-0.122-0.163-0.163c0,0.122,0,0.244-0.041,0.326c0.041,0.692,0.122,1.384,0.163,2.036
				c0.041,0.529-0.163,1.14,0.651,1.547c1.14-0.773,2.362-1.506,3.461-2.443c0.611-0.529,1.099-1.263,1.466-1.955
				c0.407-0.773,0.611-1.628,0.122-2.524c-0.855,0.773-1.628,1.588-2.484,2.28C38.181,100.553,37.122,100.92,35.9,100.635z
				 M39.036,88.907c1.995-0.936,4.031-1.792,6.026-2.769c0.611-0.286,1.1-0.855,1.547-1.385c0.529-0.651,0.366-1.221-0.326-1.669
				c-0.326-0.204-0.692-0.407-1.058-0.448c-1.1-0.122-2.199-0.081-3.217,0.448c-0.488,0.245-1.1,0.57-1.303,1.018
				c-0.652,1.547-1.181,3.176-1.71,4.764c-0.041,0.041-0.081,0.082-0.122,0.123c0,0,0.041,0.04,0.082,0.081
				C38.955,88.989,38.995,88.948,39.036,88.907z M52.677,172.018c1.669-1.547,3.379-3.054,4.397-5.132
				c0.896-1.75,0.855-3.663,0.163-5.497c-0.488-1.302-1.751-1.873-3.095-1.465c-2.077,0.569-3.379,2.199-3.502,4.357
				c-0.041,0.773,0,1.587-0.082,2.361C50.356,168.76,51.211,170.429,52.677,172.018z M35.9,133.985
				c0.245-0.122,0.408-0.122,0.489-0.204c1.059-1.425,2.443-2.524,3.991-3.339c1.506-0.814,2.077-1.954,2.199-3.502
				c0.041-0.448,0.122-0.896,0.081-1.303c-0.081-0.732-0.203-1.466-0.488-2.158c-0.488-1.1-1.14-1.303-2.239-0.855
				c-2.729,1.1-4.113,3.38-4.928,6.068c-0.04,0.122-0.04,0.244,0,0.407C35.29,130.728,35.616,132.315,35.9,133.985z M41.153,150.436
				c0.326-0.244,0.57-0.366,0.733-0.529c0.896-0.896,1.792-1.791,2.647-2.687c0.488-0.489,1.059-0.938,1.425-1.508
				c0.733-1.058,1.222-2.28,0.693-3.582c-0.367-0.815-0.896-1.589-1.425-2.322c-0.326-0.448-0.815-0.693-1.385-0.448
				c-1.751,0.692-3.38,1.669-4.438,3.298c-0.488,0.773-0.692,1.547-0.285,2.443c0.326,0.692,0.53,1.466,0.815,2.198
				C40.339,148.318,40.706,149.336,41.153,150.436z M29.67,120.71c0.122-0.204,0.204-0.285,0.204-0.367
				c0.081-2.891,0.204-5.782,0.244-8.632c0-0.407-0.203-0.978-0.488-1.262c-0.937-0.978-1.914-1.914-2.973-2.77
				c-0.978-0.814-2.077-0.407-2.362,0.855c-0.122,0.488-0.163,1.059-0.081,1.547c0.285,1.547,0.651,3.054,1.059,4.601
				C26.005,117.208,27.838,118.918,29.67,120.71z M44.208,137.08c0.407-1.181,0.407-2.484,0.285-3.787
				c-0.04-0.529-0.325-1.06-0.57-1.588c-0.285-0.529-0.773-0.733-1.303-0.448c-0.611,0.326-1.262,0.61-1.751,1.099
				c-1.303,1.344-2.565,2.729-3.787,4.153c-0.163,0.163-0.367,0.489-0.326,0.692c0.326,1.385,0.651,2.77,1.262,4.154
				c1.018-0.897,1.832-1.833,2.81-2.484C41.846,138.179,43.026,137.69,44.208,137.08z M32.724,136.509
				c-0.488-1.873-0.936-3.583-1.425-5.212c-0.081-0.285-0.366-0.569-0.611-0.773c-1.506-1.18-3.054-2.321-4.601-3.461
				c-0.489-0.367-1.018-0.692-1.588-0.896c-1.1-0.407-1.588-0.041-1.466,1.141c0.123,1.628,0.651,3.135,1.955,4.153
				c1.344,1.059,2.729,1.996,4.154,2.973c0.896,0.611,1.995,0.855,2.728,1.751C31.991,136.306,32.276,136.347,32.724,136.509z
				 M34.149,113.869c0.041,0,0.082,0.041,0.123,0.041c0,0.408,0.04,0.773,0,1.181c-0.041,0.529,0.244,0.896,0.651,1.018
				c0.367,0.122,0.815,0,1.222-0.082c0.163-0.041,0.326-0.285,0.448-0.448c0.896-1.262,1.792-2.484,2.606-3.746
				c0.489-0.814,0.896-1.71,1.222-2.606c0.203-0.611,0.245-1.303,0.203-1.914c-0.04-0.937-0.529-1.385-1.425-1.629
				c-0.774-0.203-1.507-0.122-2.117,0.367c-0.896,0.692-1.669,1.506-1.792,2.769c-0.082,0.733-0.286,1.466-0.448,2.158
				C34.598,111.955,34.394,112.892,34.149,113.869z M34.679,142.699c-0.326-1.426-0.612-2.688-1.873-3.462
				c-0.367-0.204-0.57-0.651-0.896-0.977c-0.978-1.018-2.077-1.874-3.461-2.281c-1.059-0.326-1.873,0-2.484,0.937
				c-1.018,1.507-0.815,2.932,0.733,3.95c1.588,1.059,3.298,1.792,5.171,2.076C32.806,143.064,33.702,143.105,34.679,142.699z
				 M45.551,158.376c0.082-0.325,0.203-0.691,0.245-1.059c0.244-2.361,1.262-4.356,2.972-5.945c0.978-0.896,1.059-1.832,0.815-2.932
				c-0.245-1.141-0.855-1.465-1.914-1.059c-1.75,0.693-3.216,1.791-4.072,3.502c-0.815,1.629-1.1,3.299-0.123,5.009
				c0.326,0.57,0.57,1.18,0.773,1.792C44.452,158.213,44.778,158.539,45.551,158.376z M48.28,165.421
				c0.122-0.448,0.162-0.57,0.162-0.692c0.489-2.728,1.67-5.049,3.869-6.922c1.466-1.263,1.14-3.502-0.448-4.807
				c-0.488-0.365-0.896-0.447-1.424-0.161c-1.507,0.773-2.444,2.035-2.729,3.624c-0.448,2.605-0.285,5.212,0,7.818
				C47.75,164.606,47.994,164.892,48.28,165.421z M49.746,173.85c-0.652-1.059-1.385-2.035-1.874-3.095
				c-0.651-1.385-1.833-1.913-3.217-2.077c-1.059-0.122-2.077-0.203-3.054,0.326c-1.71,0.937-1.751,3.014-0.081,3.99
				c0.285,0.164,0.611,0.326,0.937,0.408c2.036,0.61,4.113,0.732,6.189,0.692C48.972,174.095,49.298,173.932,49.746,173.85z
				 M38.303,152.594c-0.529-1.385-0.937-2.483-1.384-3.583c-0.123-0.285-0.366-0.57-0.61-0.813c-0.57-0.53-1.223-1.02-1.792-1.508
				c-1.018-0.855-2.199-1.385-3.461-1.751c-0.855-0.244-1.466,0.082-1.955,0.651c-0.529,0.612-0.529,1.344-0.04,1.955
				c0.692,0.854,1.385,1.751,2.281,2.279C33.417,151.087,35.738,151.779,38.303,152.594z M34.557,90.821
				c0.733-2.239,1.384-4.234,2.036-6.271c0.041-0.122,0.041-0.285,0-0.366c-0.407-1.263-0.652-2.606-1.628-3.665
				c-1.182-1.303-2.281-1.141-3.014,0.448c-0.082,0.244-0.204,0.488-0.204,0.773C31.543,84.999,32.276,88.011,34.557,90.821z
				 M45.185,166.928c0-0.163,0.041-0.203,0-0.245c-1.629-3.42-2.077-3.869-5.294-5.619c-1.303-0.732-2.606-0.61-3.909-0.203
				c-0.978,0.284-1.303,1.058-0.733,1.914c0.407,0.61,0.896,1.222,1.507,1.588C39.321,165.99,42.252,166.479,45.185,166.928z
				 M69.902,42.527c1.14-0.204,2.321-0.366,3.461-0.691c1.466-0.408,2.85-1.06,4.031-2.078c0.652-0.611,1.018-1.303,0.978-2.199
				c-0.041-1.262-0.937-2.077-2.158-1.792c-0.896,0.203-1.832,0.57-2.606,1.059c-1.669,1.059-2.851,2.646-3.909,4.316
				C69.332,41.713,69.454,42.12,69.902,42.527z M32.439,98.599c0.448-1.67,0.896-3.176,1.263-4.683
				c0.041-0.204-0.082-0.489-0.204-0.692c-0.448-0.896-0.937-1.75-1.384-2.646c-0.57-1.14-1.304-1.588-2.362-1.385
				c-1.303,0.245-1.833,0.896-1.833,2.281c0,0.529,0.082,1.058,0.204,1.547C28.896,95.301,30.525,96.929,32.439,98.599z
				 M30.485,108.453c0.325-1.873,0.611-3.46,0.896-5.049c0.082-0.367,0.203-0.855,0.041-1.14c-0.692-1.181-1.385-2.321-2.24-3.379
				c-0.733-0.896-1.548-0.733-2.321,0.122c-0.814,0.896-0.855,1.995-0.61,3.095C26.82,104.708,28.489,106.58,30.485,108.453z
				 M36.471,96.726c0.692-0.325,1.384-0.732,2.117-0.937c0.814-0.244,1.629-0.326,2.443-0.488c0.245-0.041,0.529-0.163,0.692-0.326
				c1.181-1.059,2.158-2.281,2.606-3.828c0.326-1.1-0.53-1.996-1.629-1.67C39.036,90.658,36.959,92.206,36.471,96.726z
				 M34.394,124.823c0.326-0.286,0.448-0.408,0.57-0.53c1.914-2.077,3.868-4.154,5.782-6.23c0.407-0.448,0.774-0.936,1.018-1.506
				c0.163-0.326,0.123-0.896-0.04-1.221c-0.245-0.489-0.815-0.692-1.344-0.53c-0.367,0.122-0.774,0.245-1.059,0.488
				c-1.344,1.181-2.728,2.321-3.868,3.665c-0.652,0.733-1.059,1.792-1.222,2.769C33.986,122.705,34.272,123.683,34.394,124.823z
				 M40.99,158.986c-0.57-1.709-1.058-3.339-2.932-3.989c-1.14-0.407-2.24-1.019-3.339-1.467c-0.57-0.204-1.181-0.325-1.751-0.447
				c-0.448-0.083-1.059-0.244-1.263,0.284c-0.163,0.449-0.163,1.059,0,1.467c0.204,0.487,0.611,1.018,1.059,1.304
				c0.896,0.569,1.833,1.14,2.851,1.505C37.285,158.335,39.036,158.784,40.99,158.986z M55.324,52.952
				c0.244-0.204,0.488-0.367,0.692-0.57c0.896-0.896,1.71-1.873,2.688-2.646c1.1-0.896,1.181-1.955,0.814-3.136
				c-0.122-0.366-0.204-0.773-0.366-1.099c-0.611-1.303-1.425-1.425-2.402-0.407C54.672,47.169,54.143,50.02,55.324,52.952z
				 M37.855,81.537c0.285-0.692,0.57-1.059,0.57-1.466c0.163-2.158,0.082-4.276-0.814-6.312c-0.407-0.937-1.14-1.547-2.158-1.751
				c-0.367-0.082-0.896,0-1.222,0.204c-0.733,0.488-0.896,2.158-0.326,2.85c1.222,1.588,2.28,3.299,3.054,5.172
				C37.163,80.601,37.448,80.927,37.855,81.537z M54.51,60.078c-1.466,1.874-2.932,3.746-4.398,5.62
				c0.122,0.122,0.163,0.204,0.244,0.204c2.321,0.61,6.353-1.303,7.534-4.316c0.366-0.856,0.04-1.304-0.937-1.385
				C56.138,60.2,55.364,60.159,54.51,60.078z M42.09,80.479c1.018,0,1.751,0.041,2.484,0c2.158-0.164,3.502-1.425,4.316-3.298
				c0.448-1.018,0.082-1.629-1.059-1.669c-0.855-0.041-1.751-0.041-2.606,0.041c-0.408,0.041-1.018,0.285-1.181,0.611
				C43.352,77.465,42.782,78.891,42.09,80.479z M45.47,73.189c1.424,0,2.565,0.041,3.665,0c1.791-0.082,2.647-1.14,3.217-2.769
				c0.326-0.937-0.204-1.548-1.181-1.792c-0.855-0.204-1.71-0.489-2.688-0.774c-0.366,0.611-0.814,1.303-1.221,1.996
				C46.731,70.828,46.203,71.845,45.47,73.189z M45.144,67c0.652-1.099,1.466-1.955,1.71-2.932c0.611-2.362,0.53-4.765-0.163-7.085
				c-0.163-0.489-0.367-0.896-0.978-0.896C44.411,57.634,43.922,64.638,45.144,67z M30.24,126.492c0.245-0.896,0-1.466-0.488-2.036
				c-1.1-1.262-2.118-2.565-3.176-3.827c-0.408-0.489-0.855-0.978-1.344-1.385c-0.326-0.244-0.774-0.448-1.181-0.529
				c-1.1-0.163-1.669,0.529-1.303,1.547c0.244,0.652,0.61,1.222,0.936,1.833c0.408,0.732,0.978,1.099,1.792,1.344
				c1.426,0.367,2.811,0.855,3.706,2.198C29.426,126.004,29.874,126.207,30.24,126.492z M61.717,51.323
				c-1.547,1.791-3.095,3.542-4.602,5.334c-0.082,0.082-0.244,0.244-0.204,0.326c0.082,0.406,0.163,0.813,0.366,1.14
				c0.082,0.082,0.611-0.041,0.896-0.204c0.773-0.448,1.507-0.978,2.321-1.425c1.099-0.611,2.199-1.262,2.851-2.402
				c0.61-1.059,0.448-1.628-0.611-2.199C62.45,51.73,62.165,51.567,61.717,51.323z M62.979,45.418
				c1.588-1.71,2.973-3.217,4.479-4.887c-0.081-0.407-0.204-1.18-0.326-1.955c-0.082-0.448-0.203-0.896-0.692-0.977
				c-0.529-0.082-1.099,0-1.384,0.489C63.712,40.247,62.776,42.527,62.979,45.418z M40.746,75.266
				c0.407-0.814,0.774-1.466,1.059-2.117c0.285-0.652,0.611-1.304,0.611-1.955c0.041-1.466-0.122-2.973-0.204-4.439
				c-0.041-0.488-0.204-0.814-0.855-0.936c-0.204,0.326-0.57,0.652-0.692,1.018c-0.407,1.181-0.855,2.403-1.1,3.624
				C39.24,72.171,39.565,73.76,40.746,75.266z M52.148,50.101c-1.71,1.67-2.606,6.638-1.833,9.448
				c0.896-1.181,1.751-2.281,2.524-3.38c0.122-0.163,0.082-0.489,0.041-0.733c-0.081-1.141-0.203-2.24-0.325-3.38
				C52.474,51.485,52.311,50.916,52.148,50.101z M63.753,49.246c0.041,0.123,0.081,0.245,0.163,0.407
				c1.506,0.285,2.85-0.203,3.99-1.221c1.059-0.937,1.507-2.159,1.181-3.909C67.173,46.233,65.463,47.739,63.753,49.246z"/>
		</g>
		<path fill="#FFFFFF" d="M192.389,20.497c1.058,0.692,1.302,1.833,1.506,2.932c0.082,0.53,0.164,1.059,0.121,1.548
			c-0.08,2.484,0.531,4.845,1.508,7.248c-1.343,0-2.646,0-3.99,0c-0.326,0.814-0.651,1.588-1.019,2.443
			c-3.094,0.081-6.229,0.163-9.488,0.244c0.611-3.339,1.507-6.515,1.427-9.854c1.627-1.018,3.257-2.036,4.846-3.054
			c0.528-0.367,1.058-0.692,1.588-1.06c0.326-0.203,0.609-0.406,0.937-0.61c0.488,0.082,0.977,0.204,1.466,0.245
			C191.655,20.661,192.021,20.539,192.389,20.497z"/>
		<path fill="#FFFFFF" d="M192.389,20.497c-0.367,0.042-0.693,0.164-1.06,0.123c-0.488-0.041-0.977-0.163-1.506-0.244
			c0.163-1.181,0.365-2.402,0.529-3.583c0.203-1.629,0.367-3.299-0.122-4.927c-0.164-0.57-0.366-1.14-1.06-1.506
			c0,0.448,0,0.773,0,1.14c0,1.995,0.042,3.991,0,5.986c-0.04,1.181-0.203,2.321-0.284,3.502c-0.53,0.366-1.06,0.692-1.588,1.059
			c0.08-1.792,0.245-3.542,0.245-5.334c0-1.751-0.123-3.461-0.245-5.212c-0.042-0.408-0.164-0.855-0.245-1.385
			c-2.729,0.448-4.887,1.669-6.556,3.747c-0.245,0.325-1.425,1.873-1.099,2.891c-0.651-0.041-1.508-0.407-2.2-0.448
			c0.204-1.303,0.488-2.81,0.692-4.113c0.489-3.257,1.792-5.986,4.807-7.696c1.872-1.059,3.012-0.855,4.314,0.814
			c0.57,0.732,0.979,1.547,1.507,2.402c0.326,0.041,0.733,0.163,1.182,0.163c1.099,0,1.792,0.611,2.32,1.466
			c0.692,1.181,1.019,2.484,1.141,3.868c0.123,2.036-0.122,3.991-0.611,5.945C192.429,19.643,192.429,20.049,192.389,20.497z
			 M180.946,10.033c1.587-1.14,3.299-1.833,5.253-2.077c-0.652-1.344-1.385-1.792-2.28-1.385c-1.466,0.652-2.647,1.629-3.135,3.258
			c-0.042,0.122-0.082,0.285-0.082,0.407C180.742,10.155,180.824,10.073,180.946,10.033z"/>
		<path fill="#FFFFFF" d="M175.611,73.353c-0.406-0.367-0.732-0.611-1.18-1.018c0.569-0.733,1.14-1.507,1.832-2.361
			c1.506,1.14,2.971,2.198,4.397,3.298c-0.408,0.652-1.71,2.565-1.71,2.565l-0.734-0.611c0,0,0.409,1.507,0.57,2.036
			c2.037,6.311,4.072,12.623,6.109,18.976c0.324,0.977,0.732,1.832,1.425,2.605c1.262,1.385,2.24,3.014,2.972,4.765
			c1.467,3.584-0.202,6.353-3.176,7.818c-1.872,0.896-3.909,1.262-5.944,1.384c-4.928,0.285-9.651-0.488-14.334-1.955
			c-0.366-0.122-0.734-0.244-1.222-0.407c0,1.506,0,2.891,0,4.479c1.792,0,3.542,0,5.375,0c0,1.995,0,3.868,0,5.823
			c-4.927,0-9.855,0-14.823,0c0-1.914,0-3.787,0-5.742c1.67,0,3.299,0,5.091,0c0-2.158,0-4.193,0-6.312
			c-0.854-0.488-1.832-0.977-2.77-1.506c-4.234-2.484-7.98-5.538-10.831-9.529c-1.465-2.036-2.565-4.235-2.932-6.8
			c-0.285-2.077,1.1-5.416,3.665-6.393c1.955-0.733,3.991-0.937,6.027-0.978c0.65,0,1.343-0.081,1.872-0.367
			c6.557-3.054,13.111-6.189,19.668-9.284C175.163,73.678,175.366,73.515,175.611,73.353z M150.324,98.314
			c0-0.041-0.041-0.082-0.041-0.082s-0.039,0-0.082,0C150.244,98.232,150.283,98.273,150.324,98.314
			c0.081,0.081,0.122,0.203,0.203,0.326c0.082,0.082,0.164,0.203,0.245,0.285c0.163,0.163,0.285,0.285,0.447,0.448
			c0.122,0.082,0.245,0.204,0.367,0.285c0.081,0.082,0.162,0.163,0.244,0.285c0.122,0.04,0.244,0.082,0.366,0.082
			c-0.04-0.082-0.122-0.164-0.162-0.285c-0.122-0.082-0.204-0.122-0.326-0.204c-0.122-0.122-0.204-0.244-0.325-0.326
			c-0.164-0.163-0.326-0.285-0.448-0.448c-0.083-0.082-0.204-0.163-0.286-0.245C150.527,98.477,150.405,98.395,150.324,98.314z
			 M149.021,98.843c0-0.04,0-0.081-0.041-0.121c0,0-0.041,0-0.081-0.042C148.939,98.762,148.98,98.803,149.021,98.843
			c0,0.042,0,0.082,0.04,0.122c0,0,0.041,0,0.083,0C149.103,98.925,149.062,98.884,149.021,98.843z M153.907,103.404
			c0.082,0.081,0.163,0.163,0.286,0.244c0.08,0.042,0.162,0.042,0.284,0.082c-0.039-0.082-0.082-0.163-0.122-0.245
			c-0.082-0.081-0.162-0.163-0.285-0.244c-0.122,0-0.203-0.041-0.326-0.041C153.826,103.241,153.867,103.322,153.907,103.404z
			 M152.971,102.508c-0.082-0.082-0.162-0.164-0.244-0.245c-0.081-0.082-0.162-0.203-0.244-0.285
			c-0.163-0.082-0.325-0.204-0.489-0.286c-0.08-0.082-0.162-0.163-0.244-0.245c-0.081,0-0.162-0.04-0.244-0.04
			c0.041,0.04,0.082,0.123,0.163,0.163c0.081,0.082,0.163,0.163,0.245,0.245c0.162,0.081,0.325,0.203,0.487,0.285
			c0.122,0.081,0.204,0.123,0.326,0.204C152.768,102.345,152.849,102.467,152.971,102.508c0.041,0.122,0.123,0.244,0.204,0.326
			c0.081,0,0.203,0.041,0.285,0.041c-0.04-0.081-0.082-0.122-0.163-0.203C153.175,102.63,153.094,102.589,152.971,102.508z
			 M157.125,105.44c0.081,0.081,0.203,0.163,0.284,0.244c0.245,0.163,0.448,0.407,0.733,0.529c4.642,2.647,9.609,4.317,14.862,5.172
			c2.647,0.407,5.295,0.407,7.981,0.122c-1.343-0.122-2.687-0.04-4.031-0.122c-6.434-0.53-12.542-2.24-18.242-5.253
			c-0.367-0.203-0.773-0.366-1.181-0.529c-0.123-0.082-0.204-0.122-0.326-0.204c-0.203-0.163-0.407-0.326-0.611-0.488
			c-0.081-0.041-0.162,0-0.204,0.082C156.595,105.114,156.839,105.277,157.125,105.44z M147.719,97.011
			c0-0.041-0.041-0.082-0.041-0.082s-0.041,0-0.081,0C147.637,96.929,147.678,96.97,147.719,97.011
			c0.08,0.081,0.122,0.203,0.202,0.285C147.841,97.214,147.759,97.092,147.719,97.011z M154.193,99.983c0.08,0,0.162,0,0.284,0.042
			c-0.039-0.042-0.082-0.123-0.122-0.164c-0.121-0.122-0.285-0.203-0.407-0.326l-0.081,0.082
			C153.948,99.698,154.07,99.82,154.193,99.983z M154.803,97.785c-0.04-0.041-0.121-0.123-0.162-0.163
			c0,0.082,0.041,0.203,0.041,0.285c0.081,0.57,0.365,0.773,1.1,0.57C155.414,98.191,155.089,97.988,154.803,97.785z
			 M161.075,103.037c0-0.04-0.042-0.081-0.042-0.122c0,0-0.04,0-0.08,0C160.993,102.956,161.075,102.997,161.075,103.037
			c0.244,1.222,0.487,1.466,1.913,1.588C162.418,103.933,161.849,103.363,161.075,103.037z M159.486,103.078
			c0.041,0.041,0.122,0.081,0.163,0.122c-0.041-0.041-0.041-0.122-0.082-0.163c-0.365-2.28-1.71-3.379-3.746-3.054
			C156.799,101.368,157.816,102.589,159.486,103.078z M172.436,109.797c0.366,0.041,0.733,0.081,1.101,0.122
			c0-0.081,0-0.163,0.039-0.285c-0.406-0.081-0.813-0.203-1.181-0.285c-7.207-1.792-13.805-5.009-19.994-9.122
			c0.245,0.489,0.611,0.815,0.978,1.141c2.564,2.077,5.376,3.746,8.389,5.09C165.147,108.005,168.729,109.064,172.436,109.797z
			 M156.961,83.451c0,0.082,0.042,0.204,0.042,0.285c4.846,0.693,9.446,2.24,13.886,4.153c1.018-1.832,4.805-12.216,4.845-13.315
			C169.422,77.546,163.191,80.479,156.961,83.451z M176.996,75.226c0,0-3.299,8.877-4.927,13.193
			c4.071,1.954,7.859,4.275,11.441,7.085C181.353,88.907,176.996,75.226,176.996,75.226z M168.894,116.109h-12.706v3.461h12.706
			V116.109z M158.184,89.192c-2.076-0.326-4.113-0.651-6.271-0.489c0.244,1.304,0.487,2.444,0.691,3.502
			c1.955,0.204,3.705,0.408,5.619,0.611C158.184,91.595,158.184,90.455,158.184,89.192z M180.131,104.055
			c-1.547-1.099-2.81-1.995-4.072-2.891c-1.343,1.018-2.646,1.995-3.989,3.013c0.61,0.448,1.141,0.896,1.669,1.304
			c0.773,0.651,1.711,0.732,2.565,0.407C177.485,105.399,178.626,104.748,180.131,104.055z M158.916,85.283
			c-3.095-0.977-4.643-0.814-7.248,0.855c0.041,0.407,0.081,0.854,0.163,1.303c2.239,0.204,4.398,0.367,6.637,0.57
			C158.632,87.116,158.754,86.22,158.916,85.283z M163.762,94.16c0.367-1.181,0.651-2.199,1.019-3.379
			c-1.751-0.489-3.461-0.937-5.335-1.426c-0.082,1.344-0.162,2.444-0.204,3.625C160.749,93.387,162.174,93.753,163.762,94.16z
			 M163.478,95.22c-1.385-0.327-2.688-0.692-4.275-1.06c0.204,1.833,0.365,3.421,0.528,5.009c1.059,0.203,1.996,0.407,3.014,0.61
			C162.988,98.232,163.191,96.807,163.478,95.22z M171.011,98.232c-0.938,1.263-1.792,2.443-2.647,3.665
			c0.936,0.53,1.752,1.018,2.728,1.548c1.304-0.937,2.567-1.874,4.032-2.932C173.575,99.698,172.313,98.965,171.011,98.232z
			 M171.58,97.296c1.508,0.814,2.891,1.588,4.316,2.402c0.733-0.773,1.425-1.507,2.24-2.362c-1.67-1.099-3.219-2.077-4.927-2.891
			C172.64,95.463,172.15,96.318,171.58,97.296z M165.147,89.763c0.366-0.896,0.691-1.71,1.058-2.606
			c-2.118-0.611-4.071-1.181-6.19-1.791c-0.161,1.099-0.284,1.995-0.447,2.932C161.481,88.785,163.232,89.233,165.147,89.763z
			 M152.971,93.305c0.326,1.67,0.326,1.67,1.223,2.443c1.059,0.896,2.158,1.792,3.216,2.688c0.285,0.244,0.57,0.611,1.101,0.244
			c-0.082-0.733-0.164-1.506-0.245-2.28c-0.081-0.815-0.122-1.629-0.163-2.484C156.391,93.712,154.763,93.509,152.971,93.305z
			 M183.552,101.612c-1.588-1.303-2.973-2.442-4.479-3.665c-0.773,0.855-1.466,1.588-2.199,2.403
			c1.465,1.059,2.77,2.036,4.194,3.054C181.802,102.834,182.533,102.305,183.552,101.612z M173.697,93.387
			c1.752,1.018,3.421,2.036,5.171,3.054c0.449-0.652,0.856-1.263,1.385-1.955c-1.872-1.181-3.583-2.321-5.456-3.502
			C174.39,91.921,174.022,92.654,173.697,93.387z M153.46,98.232c-0.448-1.507-1.06-2.892-2.442-3.746
			c-0.204-0.122-0.449-0.326-0.612-0.489c-0.896-0.936-1.913-0.732-3.094-0.407c1.262,1.669,2.646,2.932,4.072,4.194
			C151.993,98.354,152.646,98.477,153.46,98.232z M167.671,96.848c-1.019-0.489-1.995-0.937-3.136-1.1
			c-0.284,1.506-0.692,2.932-0.529,4.479c0.692,0.245,1.344,0.448,2.117,0.692C166.652,99.535,167.142,98.191,167.671,96.848z
			 M165.798,91.147c-0.367,1.221-0.65,2.239-0.977,3.339c1.14,0.407,2.198,0.814,3.257,1.221c0.407-1.1,0.773-2.076,1.221-3.176
			C168.119,92.083,167.061,91.676,165.798,91.147z M184.325,100.838c0.611-0.203,0.693-0.57,0.571-1.14
			c-0.49-2.117-2.281-3.054-3.747-4.438c-0.488,0.692-0.896,1.263-1.344,1.874C181.394,98.395,182.859,99.617,184.325,100.838z
			 M163.396,114.765c0-1.303-0.04-2.566,0-3.829c0.04-0.732-0.285-1.139-0.937-1.303c-0.325-0.081-0.652-0.203-1.018-0.326
			c0,1.873,0,3.625,0,5.457C162.093,114.765,162.662,114.765,163.396,114.765z M150.772,88.623
			c-1.425,0.204-2.729,0.407-4.317,0.651c1.142,0.978,2.037,1.669,2.893,2.443c0.609,0.57,1.262,0.651,2.036,0.366
			C151.22,90.943,151.018,89.885,150.772,88.623z M170.644,88.948c-1.222-0.489-2.28-0.937-3.42-1.385
			c-0.367,0.937-0.652,1.71-1.019,2.566c1.222,0.488,2.28,0.896,3.42,1.344C169.992,90.658,170.277,89.885,170.644,88.948z
			 M184.285,102.427c-0.855,0.651-1.548,1.181-2.321,1.75c0.977,0.896,1.833,1.67,2.77,2.525c0.61-0.529,1.14-0.977,1.75-1.547
			C185.71,104.218,185.059,103.363,184.285,102.427z M170.317,92.979c-0.406,1.14-0.773,2.118-1.18,3.217
			c0.529,0.245,0.935,0.407,1.425,0.652c0.57-1.018,1.059-1.914,1.629-2.891C171.58,93.631,171.051,93.346,170.317,92.979z
			 M176.182,107.231c-0.041,0.123-0.081,0.204-0.123,0.326c0.408,0.408,0.815,0.896,1.263,1.263c0.204,0.163,0.57,0.285,0.815,0.244
			c1.181-0.204,2.32-0.489,3.501-0.732c0-0.122,0-0.204,0-0.327C179.806,107.72,177.973,107.476,176.182,107.231z M171.662,89.437
			c-0.366,0.896-0.651,1.669-0.978,2.484c0.692,0.326,1.303,0.651,1.995,0.978c0.366-0.855,0.691-1.588,1.059-2.403
			C173.088,90.17,172.476,89.844,171.662,89.437z M145.642,87.482c0.691-0.122,4.357-1.751,4.764-2.158
			c0.122-0.122,0.082-0.367,0.082-0.57C148.085,84.795,146.09,85.935,145.642,87.482z M180.946,104.748
			c-0.978,0.53-1.834,1.018-2.646,1.466c1.628,0.367,3.135,0.773,5.089,0.733C182.453,106.132,181.76,105.481,180.946,104.748z
			 M172.843,106.784c-1.019-0.123-2.036-0.245-3.054-0.407c-0.978-0.122-1.996-0.408-3.177-0.081
			C168.729,107.557,170.725,107.679,172.843,106.784z M169.789,104.015c-0.896-0.489-1.547-0.856-2.281-1.222
			c-0.529,0.691-1.343,1.059-1.507,1.954C167.386,105.195,168.445,104.625,169.789,104.015z M165.676,101.938
			c-0.693-0.204-1.222-0.367-1.995-0.611c0.244,1.14-0.325,2.199,0.773,2.932C165.31,103.689,165.35,102.834,165.676,101.938z
			 M167.345,100.879c0.082,0.041,0.163,0.082,0.245,0.122c0.855-0.977,1.67-1.995,2.321-3.257c-0.489-0.163-0.814-0.285-1.222-0.448
			C168.2,98.558,167.793,99.698,167.345,100.879z M185.466,109.268c-0.854-1.058-0.977-1.14-1.669-0.855
			c-0.815,0.326-1.63,0.692-2.444,1.058C182.698,109.634,184.041,109.756,185.466,109.268z M178.584,74.085l0.406-0.692
			l-2.442-1.833l-0.489,0.652L178.584,74.085z M162.622,100.92c-0.855-0.204-1.629-0.367-2.402-0.529
			c-0.04,0.082-0.083,0.163-0.122,0.245c0.773,0.692,1.587,1.344,2.524,2.158C162.622,102.061,162.622,101.571,162.622,100.92z
			 M145.805,90.17c-0.123,0.082-0.245,0.163-0.326,0.203c0.326,0.692,0.693,1.426,1.059,2.158c0.61-0.122,1.1-0.203,1.751-0.326
			C147.312,91.432,146.578,90.781,145.805,90.17z M172.802,108.413c0.978,0.245,1.995,0.448,3.095,0.692
			C174.838,107.598,174.838,107.598,172.802,108.413z M187.379,104.055c0.651-0.977,0.448-1.669-0.977-3.013
			C186.81,102.182,187.095,103.078,187.379,104.055z M148.41,87.604c0.041,0.082,0.082,0.163,0.082,0.245
			c0.733-0.082,1.426-0.204,2.239-0.326c-0.122-0.367-0.204-0.611-0.326-0.937C149.714,86.953,149.062,87.279,148.41,87.604z
			 M171.864,105.603c-0.936-1.059-1.018-1.059-1.831-0.245C170.644,105.44,171.214,105.521,171.864,105.603z M186.932,106.254
			c-0.488,0.448-0.814,0.732-1.385,1.222c0.814,0,1.263,0,1.792,0C187.218,107.069,187.095,106.784,186.932,106.254z
			 M188.562,106.539c0.039-0.57,0.325-1.14-0.205-1.669C187.461,105.521,188.274,106.01,188.562,106.539z M185.792,102.019
			c-0.163-0.163-0.285-0.285-0.367-0.407c-0.081,0.082-0.204,0.164-0.204,0.245c0,0.123,0.082,0.245,0.204,0.285
			C185.466,102.182,185.588,102.101,185.792,102.019z M174.187,109.838c0,0.081-0.042,0.163-0.042,0.244c0.287,0,0.612,0,0.896,0
			c0-0.041,0-0.082,0-0.163C174.757,109.919,174.471,109.878,174.187,109.838z M182.533,111.344
			C182.533,111.344,182.533,111.304,182.533,111.344c-0.244,0-0.488,0-0.691,0l0,0C182.045,111.344,182.289,111.344,182.533,111.344
			z M155.047,104.3c0.122-0.041,0.165-0.082,0.245-0.123c-0.08-0.082-0.123-0.203-0.203-0.285c-0.042-0.041-0.164,0.082-0.245,0.123
			C154.925,104.137,154.967,104.218,155.047,104.3z M156.065,104.625c-0.08-0.081-0.162-0.163-0.284-0.204
			c-0.041,0-0.122,0.123-0.164,0.204c0.082,0.082,0.204,0.122,0.286,0.204C155.942,104.829,156.025,104.708,156.065,104.625z"/>
		<path fill="#FFFFFF" d="M172.436,109.797c-0.04-0.164-0.04-0.285-0.082-0.448c0.408,0.082,0.815,0.204,1.183,0.285
			c0,0.082,0,0.164-0.043,0.285C173.169,109.878,172.802,109.838,172.436,109.797z"/>
		<path fill="#FFFFFF" d="M185.792,102.019c-0.204,0.082-0.326,0.163-0.367,0.123c-0.081-0.041-0.162-0.163-0.204-0.285
			c0-0.081,0.123-0.163,0.204-0.245C185.507,101.734,185.629,101.856,185.792,102.019z"/>
		<path fill="#FFFFFF" d="M174.187,109.838c0.284,0.041,0.57,0.041,0.854,0.081c0,0.041,0,0.082,0,0.163c-0.283,0-0.608,0-0.896,0
			C174.145,110,174.187,109.919,174.187,109.838z"/>
		<path fill="#FFFFFF" d="M155.047,104.3c-0.08-0.082-0.122-0.163-0.203-0.245c0.081-0.04,0.203-0.163,0.245-0.122
			c0.08,0.041,0.123,0.163,0.203,0.285C155.212,104.259,155.169,104.259,155.047,104.3z"/>
		<path fill="#FFFFFF" d="M156.065,104.625c-0.08,0.082-0.123,0.204-0.162,0.204c-0.122-0.041-0.204-0.122-0.286-0.204
			c0.042-0.081,0.164-0.204,0.164-0.204C155.903,104.463,155.985,104.544,156.065,104.625z"/>
		<path fill="#FFFFFF" d="M154.193,99.983c-0.123-0.122-0.245-0.285-0.326-0.407l0.081-0.081c0.122,0.122,0.286,0.203,0.407,0.325
			C154.315,99.861,154.234,99.902,154.193,99.983z"/>
		<path fill="#FFFFFF" d="M150.936,98.762c0.162,0.163,0.326,0.285,0.448,0.448c-0.042,0.082-0.083,0.123-0.164,0.163
			c-0.162-0.163-0.284-0.285-0.447-0.448C150.813,98.884,150.853,98.843,150.936,98.762z"/>
		<path fill="#FFFFFF" d="M152.36,102.061c-0.163-0.082-0.325-0.204-0.489-0.285c0.042-0.041,0.082-0.082,0.122-0.122
			c0.164,0.081,0.326,0.203,0.489,0.285C152.441,101.979,152.4,102.019,152.36,102.061z"/>
		<path fill="#FFFFFF" d="M147.719,97.011c0.08,0.081,0.122,0.203,0.202,0.285C147.841,97.214,147.759,97.092,147.719,97.011
			L147.719,97.011z"/>
		<path fill="#FFFFFF" d="M154.355,103.485c0.04,0.082,0.083,0.163,0.122,0.245c-0.082-0.04-0.204-0.04-0.284-0.082
			C154.234,103.607,154.315,103.526,154.355,103.485z"/>
		<path fill="#FFFFFF" d="M151.587,101.531c-0.041-0.041-0.082-0.122-0.164-0.163c0.082,0,0.164,0.041,0.245,0.041
			C151.668,101.449,151.627,101.49,151.587,101.531z"/>
		<path fill="#FFFFFF" d="M147.719,97.011c-0.041-0.041-0.082-0.082-0.122-0.123c0.04,0,0.04,0,0.081,0
			C147.678,96.929,147.678,96.97,147.719,97.011L147.719,97.011z"/>
		<path fill="#FFFFFF" d="M152.687,102.264c-0.122-0.082-0.204-0.122-0.326-0.203c0.04-0.042,0.081-0.082,0.122-0.123
			C152.564,102.061,152.646,102.142,152.687,102.264L152.687,102.264z"/>
		<path fill="#FFFFFF" d="M153.134,102.834c-0.081-0.123-0.163-0.204-0.203-0.326l0.04-0.042c0.123,0.082,0.204,0.123,0.326,0.205
			C153.256,102.752,153.216,102.793,153.134,102.834z"/>
		<path fill="#FFFFFF" d="M156.352,104.951c0.039-0.081,0.121-0.122,0.203-0.081C156.473,104.911,156.391,104.951,156.352,104.951z"
			/>
		<path fill="#FFFFFF" d="M153.297,102.711c0.041,0.082,0.081,0.123,0.163,0.204c-0.082,0-0.204-0.041-0.285-0.041
			C153.216,102.793,153.256,102.752,153.297,102.711z"/>
		<path fill="#FFFFFF" d="M154.355,99.82c0.04,0.041,0.083,0.123,0.122,0.163c-0.082,0-0.162,0-0.284-0.04
			C154.234,99.902,154.315,99.861,154.355,99.82z"/>
		<path fill="#FFFFFF" d="M153.907,103.404c-0.04-0.082-0.081-0.122-0.163-0.204c0.123,0,0.204,0.041,0.326,0.041
			C154.029,103.282,153.989,103.322,153.907,103.404z"/>
		<path fill="#FFFFFF" d="M152.687,102.264c0.081,0.081,0.162,0.163,0.244,0.245l-0.042,0.041
			C152.849,102.467,152.768,102.345,152.687,102.264L152.687,102.264z"/>
		<path fill="#FFFFFF" d="M149.021,98.843c0.04,0.042,0.081,0.082,0.123,0.122c-0.042,0-0.083,0-0.083,0
			C149.021,98.925,149.021,98.884,149.021,98.843L149.021,98.843z"/>
		<path fill="#FFFFFF" d="M150.609,98.558c0.082,0.082,0.204,0.164,0.285,0.245c-0.042,0.04-0.081,0.082-0.122,0.162
			c-0.081-0.081-0.163-0.203-0.245-0.285L150.609,98.558z"/>
		<path fill="#FFFFFF" d="M149.021,98.843c-0.041-0.04-0.082-0.081-0.122-0.121c0.04,0,0.081,0,0.081,0.04
			C149.021,98.762,149.021,98.803,149.021,98.843L149.021,98.843z"/>
		<path fill="#FFFFFF" d="M151.871,101.775c-0.08-0.082-0.162-0.164-0.244-0.245c0.041-0.041,0.082-0.082,0.122-0.122
			c0.082,0.082,0.164,0.163,0.286,0.245C151.953,101.693,151.913,101.734,151.871,101.775z"/>
		<path fill="#FFFFFF" d="M154.07,103.241c0.081,0.081,0.164,0.163,0.285,0.244c-0.04,0.042-0.121,0.123-0.162,0.163
			c-0.081-0.081-0.164-0.163-0.286-0.244C153.989,103.322,154.029,103.282,154.07,103.241z"/>
		<path fill="#FFFFFF" d="M150.527,98.64c-0.081-0.123-0.122-0.204-0.203-0.326l0,0c0.081,0.081,0.203,0.163,0.285,0.203
			C150.609,98.558,150.527,98.64,150.527,98.64z"/>
		<path fill="#FFFFFF" d="M150.324,98.314c-0.041-0.041-0.08-0.082-0.123-0.123c0.043,0,0.043,0,0.082,0
			C150.283,98.273,150.324,98.273,150.324,98.314L150.324,98.314z"/>
		<path fill="#FFFFFF" d="M110.174,100.961c-4.153,0-8.307,0-12.46,0c-1.67,0-2.199-0.53-2.199-2.199c0-6.393,0-12.745,0-19.139
			c0-1.71,0.57-2.28,2.28-2.28c8.267,0,16.533,0.04,24.799-0.041c1.792,0,2.321,0.896,2.321,2.362
			c-0.041,6.312-0.041,12.583-0.041,18.894c0,0.245,0,0.529,0,0.774c-0.122,1.059-0.652,1.588-1.71,1.588
			c-1.833,0.041-3.665,0-5.498,0C115.142,100.961,112.658,100.961,110.174,100.961z M123.652,99.902
			c0.041-0.651,0.122-1.14,0.122-1.629c0-6.026,0-12.053,0-18.08c0-0.326,0-0.611,0-0.937c0-0.529-0.285-0.814-0.814-0.814
			c-0.285,0-0.611,0-0.937,0c-7.9,0-15.84,0-23.74,0c-0.204,0-0.448,0-0.652,0c-0.855,0.041-0.978,0.162-1.018,1.018
			c0,0.204,0,0.448,0,0.651c0,6.027,0,12.054,0,18.08c0,0.367,0,0.693,0.041,1.059c0.042,0.407,0.245,0.651,0.692,0.651
			c0.245,0,0.529,0,0.773,0c8.063,0,16.085,0,24.147,0C122.634,99.902,123.083,99.902,123.652,99.902z"/>
		<g>
			<path fill="#FFFFFF" d="M12.69,212.616l1.466,1.18c-0.163,0.245-0.286,0.49-0.286,0.692c-0.041,0.326,0.123,0.611,0.407,0.855
				c0.204,0.204,0.408,0.285,0.611,0.285c0.204,0,0.367-0.041,0.489-0.203c0.122-0.122,0.163-0.285,0.122-0.489
				c0-0.203-0.204-0.528-0.488-0.937c-0.529-0.732-0.815-1.344-0.855-1.832c-0.041-0.489,0.081-0.937,0.407-1.303
				c0.204-0.245,0.489-0.407,0.855-0.489c0.367-0.082,0.692-0.082,1.1,0.082c0.407,0.122,0.855,0.407,1.344,0.854
				c0.61,0.53,0.977,1.1,1.1,1.588c0.122,0.529-0.041,1.06-0.407,1.588l-1.466-1.18c0.163-0.245,0.203-0.49,0.203-0.692
				c-0.041-0.204-0.163-0.408-0.366-0.571c-0.163-0.162-0.326-0.244-0.489-0.244s-0.285,0.042-0.366,0.163
				c-0.082,0.081-0.082,0.163-0.082,0.285s0.123,0.325,0.326,0.611c0.529,0.731,0.855,1.261,1.018,1.67
				c0.163,0.406,0.204,0.731,0.122,1.058s-0.204,0.611-0.448,0.855c-0.285,0.285-0.61,0.529-1.018,0.611
				c-0.407,0.121-0.813,0.081-1.221-0.042c-0.407-0.122-0.855-0.406-1.344-0.855c-0.814-0.731-1.222-1.383-1.263-1.994
				C12.12,213.674,12.323,213.145,12.69,212.616z"/>
			<path fill="#FFFFFF" d="M19.979,220.434l-1.71-1.466l-0.937,0.61l-1.507-1.302l5.986-3.34l1.67,1.385l-2.281,6.434l-1.588-1.344
				L19.979,220.434z M20.59,219.131l0.936-2.199l-2.036,1.304L20.59,219.131z"/>
			<path fill="#FFFFFF" d="M24.743,217.462l4.724,3.745l-0.978,1.223l-1.588-1.263l-2.973,3.786l-1.547-1.222l2.973-3.786
				l-1.588-1.263L24.743,217.462z"/>
			<path fill="#FFFFFF" d="M29.955,221.533l1.588,1.181l-1.344,1.791l1.751,1.264l1.343-1.792l1.588,1.181l-3.787,5.172
				l-1.588-1.182l1.547-2.076l-1.75-1.263l-1.548,2.078l-1.588-1.183L29.955,221.533z"/>
			<path fill="#FFFFFF" d="M35.208,225.401l1.833,1.223l-0.122,2.523l2.239-1.1l1.792,1.223l-4.154,1.669l-1.466,2.28l-1.628-1.1
				l1.506-2.239V225.401z"/>
			<path fill="#FFFFFF" d="M41.072,235.663l-1.914-1.181l-0.814,0.732l-1.71-1.058l5.457-4.154l1.833,1.141l-1.385,6.679
				l-1.751-1.101L41.072,235.663z M41.479,234.279l0.611-2.321l-1.832,1.587L41.479,234.279z"/>
			<path fill="#FFFFFF" d="M46.244,232.567l3.216,1.874c0.53,0.326,0.855,0.692,1.018,1.1c0.123,0.447,0.082,0.855-0.122,1.221
				c-0.204,0.326-0.448,0.53-0.814,0.652c-0.244,0.081-0.488,0.081-0.814,0.041c0.326,0.325,0.529,0.651,0.61,1.019
				c0.041,0.325-0.04,0.691-0.244,1.058c-0.163,0.285-0.366,0.489-0.652,0.651c-0.285,0.164-0.57,0.245-0.854,0.245
				c-0.204,0-0.448-0.081-0.774-0.203c-0.407-0.164-0.692-0.286-0.814-0.367l-2.973-1.71L46.244,232.567z M45.47,237.943
				l0.854,0.488c0.285,0.164,0.529,0.245,0.733,0.203c0.163-0.039,0.326-0.122,0.407-0.325c0.082-0.162,0.123-0.325,0.041-0.487
				c-0.082-0.164-0.244-0.327-0.53-0.53l-0.855-0.487L45.47,237.943z M46.731,235.744l0.733,0.448
				c0.285,0.164,0.489,0.204,0.652,0.204c0.163-0.04,0.285-0.122,0.407-0.326c0.082-0.162,0.123-0.326,0.082-0.489
				c-0.041-0.162-0.203-0.284-0.448-0.447l-0.773-0.448L46.731,235.744z"/>
			<path fill="#FFFFFF" d="M52.84,242.423l-1.995-1.059l-0.773,0.773l-1.792-0.937l5.13-4.52l1.914,1.019l-0.896,6.799l-1.833-0.978
				L52.84,242.423z M53.125,240.998l0.448-2.363l-1.71,1.712L53.125,240.998z"/>
			<path fill="#FFFFFF" d="M57.727,238.961l2.362,1.141l-0.774,3.95l2.606-3.096l2.362,1.142l-2.769,5.782l-1.466-0.692l2.118-4.397
				l-3.257,3.867l-1.303-0.651l1.018-4.927l-2.118,4.397l-1.466-0.692L57.727,238.961z"/>
			<path fill="#FFFFFF" d="M66.563,248.938l-2.077-0.896l-0.692,0.855l-1.874-0.814l4.765-4.928l1.995,0.855l-0.326,6.841
				l-1.914-0.814L66.563,248.938z M66.726,247.514l0.285-2.403l-1.547,1.832L66.726,247.514z"/>
			<path fill="#FFFFFF" d="M74.014,246.21l1.833,0.691l-2.281,5.986l-1.832-0.692L74.014,246.21z"/>
			<path fill="#FFFFFF" d="M76.987,247.35l1.751,0.611l1.099,4.153l1.181-3.339l1.751,0.611l-2.117,6.025l-1.751-0.61l-1.1-4.112
				l-1.181,3.298l-1.751-0.61L76.987,247.35z"/>
			<path fill="#FFFFFF" d="M82.159,253.661l1.833,0.448c-0.041,0.285-0.041,0.57,0.041,0.732c0.122,0.326,0.366,0.53,0.732,0.612
				c0.285,0.081,0.489,0.081,0.692,0c0.204-0.082,0.285-0.204,0.367-0.367c0.04-0.163,0.04-0.325-0.082-0.488
				c-0.082-0.163-0.367-0.366-0.855-0.652c-0.774-0.447-1.303-0.855-1.548-1.304c-0.244-0.406-0.325-0.854-0.163-1.343
				c0.081-0.326,0.285-0.57,0.53-0.814c0.285-0.203,0.61-0.367,1.018-0.407c0.406-0.04,0.936,0.04,1.587,0.244
				c0.774,0.245,1.345,0.57,1.67,0.978c0.326,0.408,0.407,0.937,0.285,1.629l-1.833-0.447c0.041-0.286,0-0.53-0.123-0.693
				c-0.121-0.163-0.284-0.285-0.569-0.366c-0.204-0.081-0.407-0.081-0.53,0c-0.122,0.041-0.245,0.164-0.285,0.286
				c-0.041,0.08,0,0.202,0.04,0.283c0.082,0.123,0.245,0.245,0.57,0.408c0.773,0.448,1.303,0.814,1.588,1.1
				c0.285,0.284,0.488,0.61,0.57,0.937c0.082,0.326,0.082,0.651-0.04,0.977c-0.123,0.407-0.327,0.733-0.652,0.978
				c-0.326,0.245-0.692,0.408-1.14,0.489c-0.448,0.041-0.977,0-1.547-0.203c-1.059-0.326-1.71-0.734-1.996-1.264
				C82.077,254.884,81.996,254.313,82.159,253.661z"/>
			<path fill="#FFFFFF" d="M89.244,251.382l5.782,1.587l-0.407,1.508l-1.955-0.53l-1.262,4.643l-1.914-0.53l1.263-4.642
				l-1.955-0.529L89.244,251.382z"/>
			<path fill="#FFFFFF" d="M95.759,253.133l1.914,0.488l-1.507,6.23l-1.914-0.489L95.759,253.133z"/>
			<path fill="#FFFFFF" d="M98.447,253.824l5.864,1.263l-0.326,1.548l-1.955-0.449l-1.018,4.724l-1.914-0.406l1.018-4.723
				l-1.954-0.449L98.447,253.824z"/>
			<path fill="#FFFFFF" d="M108.993,255.941l1.955,0.367l-0.692,3.746c-0.082,0.367-0.204,0.732-0.367,1.018
				c-0.163,0.326-0.407,0.571-0.692,0.774s-0.57,0.325-0.854,0.366c-0.408,0.082-0.855,0.04-1.385-0.041
				c-0.326-0.041-0.651-0.122-0.978-0.245c-0.366-0.122-0.652-0.244-0.855-0.405c-0.203-0.164-0.407-0.408-0.57-0.651
				c-0.163-0.286-0.244-0.53-0.285-0.815c-0.041-0.407-0.041-0.773,0-1.099l0.692-3.747l1.955,0.366l-0.732,3.828
				c-0.083,0.326,0,0.61,0.122,0.854c0.163,0.245,0.407,0.367,0.732,0.447c0.326,0.043,0.611,0,0.855-0.162
				c0.244-0.163,0.367-0.407,0.449-0.773L108.993,255.941z"/>
			<path fill="#FFFFFF" d="M111.518,256.39l5.945,0.855l-0.203,1.547l-1.996-0.285l-0.692,4.765l-1.955-0.285l0.692-4.764
				l-1.996-0.285L111.518,256.39z"/>
			<path fill="#FFFFFF" d="M118.114,257.285l5.253,0.57l-0.164,1.345l-3.298-0.367l-0.123,1.019l3.054,0.325l-0.122,1.303
				l-3.054-0.326l-0.122,1.264l3.379,0.366l-0.163,1.425l-5.375-0.569L118.114,257.285z"/>
			<path fill="#FFFFFF" d="M126.666,261.357c0.04-1.059,0.407-1.833,1.018-2.401c0.61-0.529,1.425-0.815,2.484-0.733
				c1.058,0.04,1.873,0.406,2.402,0.978c0.529,0.609,0.774,1.425,0.733,2.443c-0.041,0.732-0.204,1.343-0.489,1.831
				c-0.285,0.449-0.651,0.815-1.141,1.06c-0.488,0.243-1.099,0.325-1.792,0.285c-0.732-0.042-1.303-0.204-1.75-0.448
				c-0.448-0.245-0.814-0.652-1.1-1.141C126.748,262.743,126.625,262.131,126.666,261.357z M128.661,261.479
				c-0.041,0.651,0.041,1.099,0.285,1.426c0.244,0.285,0.529,0.447,0.936,0.489c0.408,0.04,0.774-0.082,1.018-0.368
				c0.245-0.243,0.408-0.731,0.448-1.466c0.041-0.61-0.081-1.058-0.285-1.343c-0.244-0.286-0.529-0.448-0.977-0.488
				c-0.407-0.041-0.733,0.08-0.978,0.366C128.824,260.38,128.661,260.828,128.661,261.479z"/>
			<path fill="#FFFFFF" d="M134.28,258.549l4.887,0.122l-0.041,1.384l-2.891-0.041l-0.042,1.1l2.484,0.04l-0.04,1.304l-2.484-0.04
				l-0.041,2.605l-1.995-0.041L134.28,258.549z"/>
			<path fill="#FFFFFF" d="M142.791,262.945l1.873-0.162c0.041,0.285,0.122,0.529,0.286,0.691c0.203,0.244,0.487,0.367,0.896,0.367
				c0.283,0,0.487-0.082,0.651-0.203c0.162-0.122,0.203-0.286,0.203-0.448c0-0.164-0.081-0.326-0.245-0.447
				c-0.161-0.123-0.487-0.245-1.018-0.326c-0.855-0.164-1.506-0.408-1.873-0.734c-0.366-0.325-0.569-0.732-0.611-1.221
				c0-0.326,0.082-0.652,0.245-0.938c0.162-0.284,0.448-0.528,0.855-0.732c0.366-0.163,0.896-0.285,1.547-0.285
				c0.814-0.04,1.467,0.122,1.873,0.407c0.447,0.285,0.692,0.774,0.814,1.426l-1.873,0.163c-0.041-0.285-0.163-0.489-0.325-0.611
				c-0.163-0.122-0.366-0.203-0.652-0.162c-0.243,0-0.406,0.04-0.529,0.162c-0.122,0.082-0.162,0.204-0.162,0.366
				c0,0.122,0.04,0.204,0.162,0.285c0.081,0.082,0.325,0.162,0.651,0.205c0.855,0.161,1.508,0.324,1.873,0.528
				c0.366,0.163,0.652,0.406,0.855,0.692c0.163,0.284,0.285,0.609,0.285,0.937c0,0.407-0.081,0.773-0.325,1.14
				c-0.204,0.367-0.529,0.611-0.937,0.814c-0.409,0.204-0.896,0.285-1.548,0.326c-1.1,0.04-1.832-0.164-2.281-0.57
				C143.117,264.086,142.831,263.557,142.791,262.945z"/>
			<path fill="#FFFFFF" d="M153.663,261.969l1.751,0.407c-0.08,0.488-0.245,0.896-0.489,1.263c-0.243,0.325-0.529,0.61-0.896,0.813
				c-0.366,0.204-0.813,0.285-1.384,0.325c-0.692,0.042-1.262-0.04-1.71-0.203c-0.448-0.162-0.856-0.488-1.222-0.978
				c-0.366-0.488-0.569-1.14-0.611-1.914c-0.081-1.058,0.163-1.873,0.692-2.482c0.529-0.611,1.303-0.938,2.32-1.019
				c0.815-0.041,1.467,0.081,1.914,0.367c0.489,0.284,0.856,0.773,1.14,1.425l-1.709,0.488c-0.082-0.204-0.163-0.326-0.204-0.407
				c-0.122-0.163-0.244-0.245-0.407-0.325c-0.162-0.082-0.366-0.082-0.529-0.082c-0.448,0.041-0.773,0.244-0.978,0.61
				c-0.162,0.285-0.244,0.692-0.202,1.264c0.04,0.691,0.161,1.179,0.406,1.424s0.529,0.367,0.937,0.326
				c0.366-0.041,0.651-0.163,0.855-0.366C153.5,262.701,153.622,262.376,153.663,261.969z"/>
			<path fill="#FFFFFF" d="M155.985,257.978l1.994-0.162l0.57,6.393l-1.995,0.163L155.985,257.978z"/>
			<path fill="#FFFFFF" d="M159.161,257.693l5.252-0.611l0.163,1.345l-3.299,0.365l0.123,1.018l3.054-0.365l0.163,1.304
				l-3.055,0.405l0.164,1.264l3.378-0.408l0.165,1.426l-5.377,0.61L159.161,257.693z"/>
			<path fill="#FFFFFF" d="M165.31,257.001l1.832-0.286l2.931,3.137l-0.528-3.502l1.833-0.286l0.977,6.313l-1.832,0.285
				l-2.892-3.095l0.529,3.46l-1.832,0.286L165.31,257.001z"/>
			<path fill="#FFFFFF" d="M177.281,258.792l1.792,0.204c-0.041,0.488-0.122,0.936-0.325,1.303
				c-0.205,0.366-0.448,0.651-0.775,0.896c-0.325,0.244-0.773,0.407-1.343,0.529c-0.693,0.121-1.264,0.121-1.751,0.041
				c-0.489-0.122-0.896-0.408-1.304-0.815c-0.406-0.447-0.692-1.059-0.855-1.832c-0.202-1.06-0.08-1.873,0.368-2.564
				c0.448-0.651,1.179-1.1,2.197-1.304c0.773-0.163,1.467-0.122,1.955,0.122c0.529,0.244,0.938,0.651,1.303,1.263l-1.629,0.692
				c-0.082-0.164-0.202-0.326-0.284-0.368c-0.122-0.122-0.285-0.203-0.448-0.283c-0.163-0.041-0.367-0.041-0.57,0
				c-0.448,0.08-0.732,0.325-0.896,0.732c-0.123,0.285-0.123,0.732-0.04,1.303c0.121,0.692,0.325,1.141,0.609,1.385
				c0.245,0.203,0.571,0.284,0.979,0.203c0.366-0.081,0.65-0.244,0.773-0.489C177.199,259.566,177.281,259.2,177.281,258.792z"/>
			<path fill="#FFFFFF" d="M178.951,254.599l5.172-1.182l0.283,1.345l-3.216,0.732l0.244,0.978l3.013-0.691l0.286,1.261
				l-3.014,0.692l0.285,1.223l3.339-0.774l0.326,1.425l-5.253,1.222L178.951,254.599z"/>
			<path fill="#FFFFFF" d="M192.959,256.593l-2.159,0.611v1.1l-1.954,0.57l0.569-6.801l2.078-0.57l4.071,5.498l-1.996,0.57
				L192.959,256.593z M192.186,255.372l-1.304-2.036l-0.041,2.401L192.186,255.372z"/>
			<path fill="#FFFFFF" d="M194.139,250.689l1.751-0.571l3.381,2.607l-1.061-3.381l1.793-0.569l1.996,6.108l-1.792,0.57
				l-3.379-2.606l1.099,3.338l-1.752,0.57L194.139,250.689z"/>
			<path fill="#FFFFFF" d="M200.939,248.449l2.77-1.018c0.529-0.204,1.018-0.285,1.385-0.244c0.406,0.04,0.731,0.122,1.058,0.326
				c0.325,0.202,0.612,0.447,0.815,0.773c0.244,0.326,0.405,0.691,0.57,1.1c0.244,0.65,0.325,1.181,0.325,1.587
				c0,0.408-0.122,0.773-0.286,1.1c-0.161,0.326-0.406,0.61-0.651,0.774c-0.366,0.243-0.731,0.447-1.058,0.569l-2.77,1.019
				L200.939,248.449z M203.301,249.142l1.222,3.299l0.448-0.163c0.407-0.122,0.652-0.286,0.774-0.447
				c0.122-0.164,0.203-0.327,0.203-0.612c0-0.244-0.081-0.61-0.245-1.1c-0.244-0.651-0.488-1.018-0.773-1.18
				c-0.285-0.163-0.691-0.163-1.181,0.04L203.301,249.142z"/>
			<path fill="#FFFFFF" d="M209.409,245.232l5.538-2.361l0.651,1.466l-1.873,0.773l1.873,4.438l-1.832,0.773l-1.874-4.438
				l-1.873,0.773L209.409,245.232z"/>
			<path fill="#FFFFFF" d="M215.517,242.626l4.807-2.239l0.569,1.221l-3.014,1.386l0.447,0.937l2.811-1.304l0.569,1.182
				l-2.809,1.303l0.528,1.14l3.095-1.424l0.611,1.302l-4.886,2.281L215.517,242.626z"/>
			<path fill="#FFFFFF" d="M226.635,241.445l1.791-0.325c0.122,0.487,0.122,0.936,0.081,1.343c-0.081,0.408-0.243,0.774-0.488,1.101
				c-0.244,0.325-0.651,0.61-1.14,0.855c-0.611,0.325-1.182,0.487-1.67,0.487s-0.978-0.122-1.507-0.447
				c-0.529-0.326-0.937-0.814-1.304-1.507c-0.487-0.937-0.609-1.792-0.366-2.565c0.245-0.773,0.814-1.385,1.751-1.833
				c0.733-0.366,1.344-0.528,1.914-0.447s1.1,0.367,1.589,0.854l-1.386,1.141c-0.161-0.163-0.283-0.244-0.366-0.285
				c-0.162-0.081-0.325-0.122-0.529-0.122c-0.161,0-0.366,0.041-0.529,0.122c-0.406,0.204-0.61,0.53-0.692,0.938
				c-0.04,0.325,0.082,0.732,0.326,1.262c0.325,0.652,0.651,1.018,0.937,1.14c0.326,0.122,0.651,0.122,0.977-0.081
				c0.326-0.162,0.529-0.406,0.612-0.692C226.716,242.098,226.757,241.812,226.635,241.445z"/>
			<path fill="#FFFFFF" d="M227.041,236.966l1.71-0.978l1.1,1.955l1.874-1.059l-1.101-1.954l1.752-0.978l3.135,5.578l-1.75,0.978
				l-1.263-2.28l-1.874,1.059l1.263,2.28l-1.71,0.979L227.041,236.966z"/>
			<path fill="#FFFFFF" d="M233.271,233.464l1.588-0.977l3.909,1.751l-1.832-3.014l1.587-0.978l3.34,5.457l-1.588,0.978
				l-3.868-1.751l1.832,3.013l-1.588,0.978L233.271,233.464z"/>
			<path fill="#FFFFFF" d="M240.927,232.527c-0.57-0.855-0.773-1.709-0.61-2.524c0.162-0.813,0.691-1.507,1.547-2.077
				c0.896-0.609,1.711-0.813,2.525-0.651c0.813,0.163,1.466,0.651,2.035,1.508c0.407,0.609,0.651,1.221,0.692,1.75
				c0.041,0.53-0.041,1.06-0.285,1.548c-0.243,0.487-0.651,0.937-1.262,1.304c-0.611,0.406-1.181,0.65-1.671,0.691
				c-0.528,0.082-1.058,0-1.547-0.285C241.822,233.586,241.334,233.139,240.927,232.527z M242.596,231.428
				c0.367,0.53,0.733,0.856,1.059,0.979c0.367,0.081,0.693,0.039,1.061-0.204c0.365-0.244,0.569-0.53,0.609-0.896
				c0.041-0.367-0.122-0.855-0.529-1.426c-0.325-0.489-0.692-0.814-1.019-0.896c-0.365-0.081-0.691-0.041-1.058,0.204
				c-0.325,0.202-0.529,0.528-0.57,0.896C242.067,230.41,242.229,230.898,242.596,231.428z"/>
			<path fill="#FFFFFF" d="M245.324,225.687l1.589-1.141l2.809,3.909l2.525-1.791l0.937,1.262l-4.113,2.973L245.324,225.687z"/>
			<path fill="#FFFFFF" d="M251.596,225.157c-0.651-0.813-0.896-1.67-0.814-2.482c0.122-0.816,0.57-1.549,1.384-2.159
				c0.855-0.651,1.671-0.938,2.485-0.814c0.813,0.081,1.506,0.57,2.157,1.384c0.448,0.611,0.733,1.141,0.814,1.67
				c0.082,0.528,0.041,1.06-0.163,1.547c-0.203,0.489-0.61,0.978-1.181,1.385c-0.571,0.448-1.1,0.732-1.628,0.814
				c-0.53,0.123-1.06,0.041-1.59-0.163C252.531,226.135,252.043,225.769,251.596,225.157z M253.143,223.936
				c0.407,0.53,0.773,0.814,1.141,0.896c0.367,0.081,0.692,0,1.019-0.244c0.325-0.244,0.528-0.57,0.528-0.938
				s-0.203-0.814-0.651-1.385c-0.367-0.487-0.733-0.732-1.1-0.814c-0.366-0.081-0.692,0-1.018,0.285
				c-0.325,0.245-0.488,0.57-0.488,0.938C252.573,222.999,252.736,223.448,253.143,223.936z"/>
			<path fill="#FFFFFF" d="M260.553,219.172l-0.854-1.018l2.361-1.955l1.752,2.077c-0.205,0.691-0.408,1.222-0.652,1.628
				c-0.243,0.407-0.611,0.814-1.1,1.181c-0.569,0.489-1.141,0.773-1.669,0.896c-0.529,0.122-1.06,0.041-1.588-0.163
				c-0.53-0.244-1.019-0.611-1.426-1.1c-0.448-0.529-0.732-1.099-0.854-1.669c-0.122-0.569-0.042-1.141,0.202-1.711
				c0.204-0.448,0.571-0.896,1.141-1.344c0.53-0.447,0.979-0.733,1.344-0.854c0.367-0.123,0.692-0.163,1.06-0.123
				c0.366,0.042,0.691,0.204,1.058,0.447l-1.262,1.468c-0.203-0.122-0.447-0.204-0.651-0.164c-0.244,0.042-0.448,0.122-0.691,0.326
				c-0.326,0.285-0.49,0.612-0.49,1.018c0,0.407,0.204,0.855,0.612,1.344c0.447,0.529,0.854,0.815,1.261,0.896
				c0.408,0.041,0.774-0.041,1.141-0.367c0.163-0.121,0.325-0.284,0.407-0.487c0.122-0.164,0.204-0.408,0.325-0.693l-0.365-0.447
				L260.553,219.172z"/>
			<path fill="#FFFFFF" d="M260.473,213.918l1.628-1.466l2.402,0.734l-0.488-2.484l1.629-1.466l0.651,4.438l1.792,1.996
				l-1.466,1.343l-1.791-1.995L260.473,213.918z"/>
		</g>
		<g>
			<polygon fill="#FFFFFF" points="212.83,231.592 212.585,231.063 222.685,220.149 225.005,218.805 			"/>
		</g>
		<g>
			<polygon fill="#FFFFFF" points="68.151,231.592 68.396,231.063 58.296,220.149 55.976,218.805 			"/>
		</g>
		<g>
			<path fill="#FFFFFF" d="M91.036,264.33l2.85,0.692c0.57,0.122,1.018,0.326,1.303,0.57c0.326,0.245,0.529,0.529,0.692,0.854
				c0.163,0.325,0.245,0.733,0.245,1.099c0,0.408-0.041,0.816-0.163,1.264c-0.163,0.652-0.367,1.181-0.611,1.507
				c-0.244,0.325-0.529,0.57-0.855,0.773c-0.326,0.163-0.652,0.285-0.978,0.285c-0.448,0-0.855-0.041-1.181-0.122l-2.851-0.692
				L91.036,264.33z M92.583,266.203l-0.854,3.38l0.488,0.122c0.408,0.082,0.692,0.122,0.896,0.082
				c0.204-0.041,0.367-0.163,0.53-0.367c0.163-0.203,0.285-0.528,0.407-1.058c0.163-0.651,0.163-1.142,0-1.426
				c-0.164-0.286-0.489-0.489-0.978-0.611L92.583,266.203z"/>
			<path fill="#FFFFFF" d="M97.51,265.918l5.172,1.1l-0.286,1.345l-3.258-0.693l-0.203,0.978l3.013,0.651l-0.285,1.263l-3.014-0.65
				l-0.244,1.221l3.339,0.692l-0.285,1.425l-5.294-1.1L97.51,265.918z"/>
			<path fill="#FFFFFF" d="M103.578,267.181l5.212,0.937l-0.245,1.345l-3.257-0.57l-0.164,1.019l3.013,0.528l-0.244,1.302
				l-3.014-0.528l-0.204,1.263l3.38,0.61l-0.244,1.426l-5.335-0.937L103.578,267.181z"/>
			<path fill="#FFFFFF" d="M109.645,268.239l2.565,0.367l0.448,3.99l1.507-3.705l2.606,0.366l-0.896,6.352l-1.588-0.244l0.692-4.846
				l-1.914,4.684l-1.466-0.204l-0.57-5.009l-0.692,4.846l-1.588-0.244L109.645,268.239z"/>
			<path fill="#FFFFFF" d="M117.748,269.339l5.294,0.528l-0.123,1.345l-3.298-0.325l-0.123,1.018l3.054,0.326l-0.123,1.302
				l-3.054-0.325l-0.163,1.263l3.38,0.366l-0.163,1.425l-5.375-0.57L117.748,269.339z"/>
			<path fill="#FFFFFF" d="M123.938,269.949l2.932,0.204c0.57,0.04,1.059,0.163,1.385,0.326c0.325,0.162,0.61,0.448,0.854,0.732
				c0.204,0.326,0.367,0.651,0.448,1.059c0.081,0.408,0.081,0.814,0.081,1.262c-0.041,0.693-0.163,1.223-0.326,1.589
				c-0.163,0.366-0.407,0.652-0.733,0.896c-0.285,0.244-0.611,0.367-0.937,0.448c-0.448,0.082-0.855,0.121-1.181,0.082l-2.932-0.204
				L123.938,269.949z M125.811,271.538l-0.244,3.501l0.489,0.041c0.407,0.041,0.692,0,0.896-0.081
				c0.163-0.082,0.326-0.244,0.448-0.448c0.123-0.203,0.204-0.569,0.245-1.099c0.041-0.693-0.041-1.141-0.245-1.426
				c-0.203-0.286-0.57-0.408-1.059-0.447L125.811,271.538z"/>
			<path fill="#FFFFFF" d="M137.62,270.642l1.955,0.042l-0.082,3.827c0,0.367-0.082,0.732-0.204,1.058
				c-0.122,0.327-0.326,0.611-0.57,0.856c-0.245,0.244-0.529,0.406-0.815,0.528c-0.407,0.123-0.855,0.204-1.384,0.204
				c-0.326,0-0.651-0.041-1.018-0.081c-0.366-0.042-0.692-0.163-0.937-0.285c-0.244-0.122-0.448-0.326-0.651-0.57
				c-0.204-0.244-0.326-0.488-0.407-0.733c-0.123-0.407-0.163-0.773-0.163-1.1l0.081-3.827l1.955,0.04l-0.082,3.91
				c0,0.367,0.082,0.61,0.285,0.814c0.204,0.204,0.448,0.285,0.815,0.326c0.325,0,0.61-0.083,0.813-0.286
				c0.205-0.204,0.285-0.448,0.326-0.814L137.62,270.642z"/>
			<path fill="#FFFFFF" d="M140.796,270.684l1.833-0.042l2.482,3.502l-0.039-3.543l1.873-0.04l0.122,6.393l-1.873,0.041
				l-2.443-3.462l0.04,3.502l-1.873,0.042L140.796,270.684z"/>
			<path fill="#FFFFFF" d="M148.085,270.479l1.994-0.082l0.287,6.394l-1.996,0.122L148.085,270.479z"/>
			<path fill="#FFFFFF" d="M150.649,270.397l2.077-0.122l1.751,4.479l1.1-4.684l1.995-0.122l-1.913,6.557l-2.159,0.163
				L150.649,270.397z"/>
			<path fill="#FFFFFF" d="M157.979,269.867l5.294-0.528l0.122,1.345l-3.298,0.325l0.122,1.018l3.054-0.325l0.122,1.303
				l-3.055,0.326l0.122,1.262l3.38-0.366l0.163,1.426l-5.374,0.528L157.979,269.867z"/>
			<path fill="#FFFFFF" d="M165.024,275.568l-0.854-6.352l3.257-0.448c0.61-0.081,1.059-0.081,1.425-0.04
				c0.325,0.04,0.612,0.203,0.855,0.488c0.243,0.245,0.365,0.57,0.448,0.977c0.04,0.367,0,0.651-0.083,0.938
				c-0.122,0.284-0.283,0.529-0.528,0.692c-0.163,0.122-0.367,0.243-0.651,0.325c0.245,0.04,0.406,0.082,0.529,0.163
				c0.081,0.041,0.203,0.122,0.367,0.285c0.161,0.162,0.283,0.285,0.326,0.366l1.181,1.71l-2.199,0.286l-1.304-1.793
				c-0.163-0.244-0.325-0.365-0.407-0.447c-0.162-0.082-0.325-0.122-0.489-0.082l-0.162,0.042l0.367,2.564L165.024,275.568z
				 M166.49,271.538l0.814-0.123c0.081,0,0.245-0.081,0.488-0.162c0.122-0.041,0.204-0.122,0.285-0.244s0.081-0.244,0.081-0.367
				c-0.04-0.203-0.122-0.366-0.244-0.448c-0.163-0.081-0.407-0.122-0.773-0.081l-0.854,0.123L166.49,271.538z"/>
			<path fill="#FFFFFF" d="M171.133,272.597l1.832-0.448c0.081,0.285,0.204,0.53,0.366,0.652c0.244,0.203,0.569,0.284,0.936,0.243
				c0.287-0.04,0.49-0.162,0.612-0.285c0.122-0.162,0.161-0.325,0.161-0.488c-0.039-0.163-0.122-0.285-0.283-0.407
				c-0.164-0.123-0.529-0.162-1.06-0.203c-0.896-0.042-1.547-0.203-1.954-0.448s-0.692-0.651-0.774-1.141
				c-0.04-0.325,0-0.651,0.122-0.978c0.123-0.325,0.367-0.609,0.733-0.813c0.367-0.244,0.855-0.407,1.507-0.529
				c0.813-0.122,1.466-0.082,1.914,0.122c0.489,0.244,0.813,0.651,1.019,1.303l-1.832,0.407c-0.083-0.285-0.245-0.447-0.409-0.569
				c-0.161-0.122-0.406-0.122-0.691-0.082c-0.243,0.04-0.407,0.122-0.488,0.244s-0.123,0.244-0.123,0.367
				c0,0.081,0.082,0.162,0.204,0.244c0.122,0.08,0.325,0.123,0.692,0.123c0.896,0.039,1.507,0.121,1.914,0.243
				c0.406,0.122,0.692,0.326,0.937,0.569c0.203,0.244,0.365,0.53,0.407,0.896c0.081,0.408,0,0.815-0.162,1.183
				c-0.164,0.365-0.448,0.691-0.815,0.937c-0.366,0.244-0.856,0.406-1.465,0.528c-1.061,0.164-1.834,0.082-2.322-0.244
				C171.621,273.737,171.296,273.248,171.133,272.597z"/>
			<path fill="#FFFFFF" d="M177.037,267.221l1.953-0.365l1.223,6.271l-1.954,0.366L177.037,267.221z"/>
			<path fill="#FFFFFF" d="M179.725,266.733l5.863-1.304l0.326,1.547l-1.956,0.448l1.019,4.724l-1.914,0.408l-1.018-4.725
				l-1.954,0.448L179.725,266.733z"/>
			<path fill="#FFFFFF" d="M185.588,265.43l2.117-0.53l1.791,1.793l0.734-2.402l2.116-0.53l-1.506,4.235l0.652,2.605l-1.914,0.489
				l-0.653-2.605L185.588,265.43z"/>
		</g>
		<g>
			<path fill="#FFFFFF" d="M128.742,51.363l0.978-0.082c0.04,0.407,0.162,0.733,0.325,0.978c0.163,0.244,0.448,0.448,0.815,0.611
				c0.366,0.163,0.773,0.244,1.221,0.244c0.407,0,0.774-0.041,1.059-0.163c0.326-0.123,0.53-0.285,0.692-0.488
				c0.163-0.204,0.245-0.448,0.245-0.692c0-0.245-0.082-0.489-0.204-0.652c-0.164-0.203-0.367-0.326-0.733-0.488
				c-0.204-0.081-0.692-0.203-1.425-0.407c-0.733-0.163-1.263-0.326-1.547-0.488c-0.366-0.204-0.652-0.448-0.855-0.733
				c-0.204-0.285-0.285-0.61-0.285-0.977c0-0.408,0.122-0.773,0.326-1.14s0.57-0.611,1.018-0.814
				c0.448-0.163,0.937-0.285,1.466-0.285c0.611,0,1.099,0.081,1.547,0.285c0.448,0.203,0.814,0.489,1.059,0.855
				c0.245,0.366,0.367,0.773,0.407,1.262l-1.018,0.082c-0.041-0.489-0.244-0.896-0.57-1.14c-0.326-0.245-0.773-0.367-1.384-0.367
				c-0.652,0-1.1,0.123-1.384,0.367c-0.286,0.244-0.448,0.529-0.448,0.854c0,0.286,0.123,0.53,0.326,0.693
				c0.204,0.203,0.733,0.366,1.588,0.569c0.855,0.204,1.425,0.367,1.75,0.489c0.448,0.203,0.815,0.488,1.018,0.814
				c0.205,0.326,0.326,0.692,0.326,1.14c0,0.408-0.122,0.814-0.366,1.181s-0.611,0.651-1.059,0.896
				c-0.448,0.204-0.977,0.326-1.547,0.326c-0.733,0-1.343-0.122-1.832-0.326c-0.489-0.203-0.855-0.529-1.141-0.937
				C128.865,52.381,128.742,51.934,128.742,51.363z"/>
			<path fill="#FFFFFF" d="M136.683,53.929v-7.981h1.059v7.981H136.683z"/>
			<path fill="#FFFFFF" d="M139.248,51.363l0.978-0.082c0.041,0.407,0.163,0.733,0.326,0.978c0.163,0.244,0.448,0.448,0.814,0.611
				c0.367,0.163,0.774,0.244,1.222,0.244c0.408,0,0.773-0.041,1.06-0.163c0.325-0.123,0.53-0.285,0.691-0.488
				c0.163-0.204,0.244-0.448,0.244-0.692c0-0.245-0.081-0.489-0.203-0.652c-0.163-0.203-0.366-0.326-0.732-0.488
				c-0.204-0.081-0.693-0.203-1.425-0.407c-0.734-0.163-1.263-0.326-1.548-0.488c-0.367-0.204-0.651-0.448-0.855-0.733
				c-0.204-0.285-0.285-0.61-0.285-0.977c0-0.408,0.123-0.773,0.326-1.14c0.244-0.367,0.57-0.611,1.018-0.814
				c0.448-0.163,0.935-0.285,1.465-0.285c0.61,0,1.1,0.081,1.548,0.285c0.447,0.203,0.814,0.489,1.06,0.855
				c0.244,0.366,0.365,0.773,0.405,1.262l-1.018,0.082c-0.04-0.489-0.244-0.896-0.569-1.14c-0.326-0.245-0.773-0.367-1.385-0.367
				c-0.651,0-1.1,0.123-1.384,0.367c-0.286,0.244-0.448,0.529-0.448,0.854c0,0.286,0.123,0.53,0.326,0.693
				c0.204,0.203,0.733,0.366,1.587,0.569c0.855,0.204,1.426,0.367,1.751,0.489c0.448,0.203,0.815,0.488,1.018,0.814
				c0.204,0.326,0.326,0.692,0.326,1.14c0,0.408-0.122,0.814-0.365,1.181c-0.244,0.367-0.612,0.651-1.06,0.896
				c-0.448,0.204-0.977,0.326-1.548,0.326c-0.731,0-1.343-0.122-1.832-0.326c-0.489-0.203-0.855-0.529-1.141-0.937
				C139.411,52.381,139.248,51.934,139.248,51.363z"/>
			<path fill="#FFFFFF" d="M149.062,53.929v-7.045h-2.606v-0.937h6.313v0.937h-2.646v7.045H149.062z"/>
		</g>
		<g>
			<g>
				<path fill="#FFFFFF" d="M96.289,117.371h-1.873v-1.466h1.873V117.371z M94.7,117.086h1.303v-0.896H94.7V117.086z"/>
			</g>
			<g>
				<path fill="#FFFFFF" d="M98.406,117.371h-1.873v-1.466h1.873V117.371z M96.859,117.086h1.303v-0.896h-1.303V117.086z"/>
			</g>
			<g>
				<path fill="#FFFFFF" d="M100.564,117.371h-1.873v-1.466h1.873V117.371z M99.017,117.086h1.303v-0.896h-1.303V117.086z"/>
			</g>
			<g>
				<path fill="#FFFFFF" d="M102.722,117.371h-1.832v-1.466h1.873v1.466H102.722z M101.175,117.086h1.303v-0.896h-1.303V117.086z"/>
			</g>
			<g>
				<path fill="#FFFFFF" d="M104.88,117.371h-1.873v-1.466h1.873V117.371z M103.333,117.086h1.303v-0.896h-1.303V117.086z"/>
			</g>
			<g>
				<path fill="#FFFFFF" d="M107.039,117.371h-1.873v-1.466h1.873V117.371z M105.491,117.086h1.303v-0.896h-1.303V117.086z"/>
			</g>
			<g>
				<path fill="#FFFFFF" d="M109.197,117.371h-1.873v-1.466h1.873V117.371z M107.65,117.086h1.303v-0.896h-1.303V117.086z"/>
			</g>
			<g>
				<path fill="#FFFFFF" d="M111.355,117.371h-1.873v-1.466h1.873V117.371z M109.808,117.086h1.302v-0.896h-1.302V117.086z"/>
			</g>
			<g>
				<path fill="#FFFFFF" d="M113.513,117.371h-1.874v-1.466h1.874V117.371z M111.966,117.086h1.303v-0.896h-1.303V117.086z"/>
			</g>
			<g>
				<path fill="#FFFFFF" d="M115.671,117.371h-1.873v-1.466h1.873V117.371z M114.124,117.086h1.303v-0.896h-1.303V117.086z"/>
			</g>
			<g>
				<path fill="#FFFFFF" d="M117.83,117.371h-1.874v-1.466h1.874V117.371z M116.282,117.086h1.303v-0.896h-1.303V117.086z"/>
			</g>
		</g>
		<g>
			<g>
				<path fill="#FFFFFF" d="M95.23,119.285h-1.873v-1.466h1.873V119.285z M93.642,119h1.303v-0.896h-1.303V119z"/>
			</g>
			<g>
				<path fill="#FFFFFF" d="M97.388,119.285h-1.873v-1.466h1.873V119.285z M95.8,119h1.302v-0.896H95.8V119z"/>
			</g>
			<g>
				<path fill="#FFFFFF" d="M99.546,119.285h-1.873v-1.466h1.873V119.285z M97.958,119h1.304v-0.896h-1.304V119z"/>
			</g>
			<g>
				<path fill="#FFFFFF" d="M101.704,119.285h-1.873v-1.466h1.873V119.285z M100.116,119h1.303v-0.896h-1.303V119z"/>
			</g>
			<g>
				<path fill="#FFFFFF" d="M103.862,119.285h-1.873v-1.466h1.873V119.285z M102.274,119h1.303v-0.896h-1.303V119z"/>
			</g>
			<g>
				<path fill="#FFFFFF" d="M106.021,119.285h-1.873v-1.466h1.873V119.285z M104.433,119h1.303v-0.896h-1.303V119z"/>
			</g>
			<g>
				<path fill="#FFFFFF" d="M108.179,119.285h-1.873v-1.466h1.873V119.285z M106.591,119h1.303v-0.896h-1.303V119z"/>
			</g>
			<g>
				<path fill="#FFFFFF" d="M110.337,119.285h-1.873v-1.466h1.873V119.285z M108.749,119h1.304v-0.896h-1.304V119z"/>
			</g>
			<g>
				<path fill="#FFFFFF" d="M112.495,119.285h-1.874v-1.466h1.874V119.285z M110.907,119h1.303v-0.896h-1.303V119z"/>
			</g>
			<g>
				<path fill="#FFFFFF" d="M114.653,119.285h-1.873v-1.466h1.873V119.285z M113.065,119h1.303v-0.896h-1.303V119z"/>
			</g>
			<g>
				<path fill="#FFFFFF" d="M116.812,119.285h-1.874v-1.466h1.874V119.285z M115.224,119h1.303v-0.896h-1.303V119z"/>
			</g>
		</g>
		<g>
			<g>
				<path fill="#FFFFFF" d="M94.212,121.158h-1.874v-1.466h1.874V121.158z M92.624,120.914h1.303v-0.896h-1.303V120.914z"/>
			</g>
			<g>
				<path fill="#FFFFFF" d="M96.37,121.158h-1.873v-1.466h1.873V121.158z M94.782,120.914h1.303v-0.896h-1.303V120.914z"/>
			</g>
			<g>
				<path fill="#FFFFFF" d="M98.528,121.158h-1.873v-1.466h1.873V121.158z M96.939,120.914h1.304v-0.896h-1.304V120.914z"/>
			</g>
			<g>
				<path fill="#FFFFFF" d="M100.686,121.158h-1.873v-1.466h1.873V121.158z M99.098,120.914h1.303v-0.896h-1.303V120.914z"/>
			</g>
			<g>
				<path fill="#FFFFFF" d="M102.844,121.158h-1.873v-1.466h1.873V121.158z M101.256,120.914h1.303v-0.896h-1.303V120.914z"/>
			</g>
			<g>
				<path fill="#FFFFFF" d="M105.003,121.158h-1.873v-1.466h1.873V121.158z M103.415,120.914h1.303v-0.896h-1.303V120.914z"/>
			</g>
			<g>
				<path fill="#FFFFFF" d="M107.161,121.158h-1.873v-1.466h1.873V121.158z M105.573,120.914h1.303v-0.896h-1.303V120.914z"/>
			</g>
			<g>
				<path fill="#FFFFFF" d="M109.319,121.158h-1.873v-1.466h1.873V121.158z M107.731,120.914h1.303v-0.896h-1.303V120.914z"/>
			</g>
			<g>
				<path fill="#FFFFFF" d="M111.477,121.158h-1.873v-1.466h1.873V121.158z M109.889,120.914h1.303v-0.896h-1.303V120.914z"/>
			</g>
			<g>
				<path fill="#FFFFFF" d="M113.636,121.158h-1.874v-1.466h1.874V121.158z M112.047,120.914h1.303v-0.896h-1.303V120.914z"/>
			</g>
			<g>
				<path fill="#FFFFFF" d="M115.794,121.158h-1.874v-1.466h1.874V121.158z M114.206,120.914h1.303v-0.896h-1.303V120.914z"/>
			</g>
			<g>
				<path fill="#FFFFFF" d="M117.952,121.158h-1.873v-1.466h1.873V121.158z M116.364,120.914h1.303v-0.896h-1.303V120.914z"/>
			</g>
		</g>
		<g>
			<g>
				<path fill="#FFFFFF" d="M121.78,117.371h-1.874v-1.466h1.874V117.371z M120.191,117.086h1.303v-0.896h-1.303V117.086z"/>
			</g>
			<g>
				<path fill="#FFFFFF" d="M123.938,117.371h-1.873v-1.466h1.873V117.371z M122.35,117.086h1.303v-0.896h-1.303V117.086z"/>
			</g>
			<g>
				<path fill="#FFFFFF" d="M126.096,117.371h-1.874v-1.466h1.874V117.371z M124.508,117.086h1.303v-0.896h-1.303V117.086z"/>
			</g>
		</g>
		<g>
			<g>
				<path fill="#FFFFFF" d="M122.756,119.285h-1.873v-1.466h1.873V119.285z M121.168,119h1.303v-0.896h-1.303V119z"/>
			</g>
			<g>
				<path fill="#FFFFFF" d="M124.915,119.285h-1.873v-1.466h1.873V119.285z M123.327,119h1.303v-0.896h-1.303V119z"/>
			</g>
			<g>
				<path fill="#FFFFFF" d="M127.073,119.285H125.2v-1.466h1.873V119.285z M125.485,119h1.303v-0.896h-1.303V119z"/>
			</g>
		</g>
		<g>
			<g>
				<path fill="#FFFFFF" d="M123.734,121.158h-1.874v-1.466h1.874V121.158z M122.146,120.914h1.303v-0.896h-1.303V120.914z"/>
			</g>
			<g>
				<path fill="#FFFFFF" d="M125.892,121.158h-1.873v-1.466h1.873V121.158z M124.304,120.914h1.304v-0.896h-1.304V120.914z"/>
			</g>
			<g>
				<path fill="#FFFFFF" d="M128.05,121.158h-1.873v-1.466h1.873V121.158z M126.462,120.914h1.304v-0.896h-1.304V120.914z"/>
			</g>
		</g>
		<g>
			<g>
				<path fill="#FFFFFF" stroke="#FFFFFF" stroke-width="0.3023" stroke-miterlimit="10" d="M140.511,212.452
					c-15.393,0-30.663-4.438-43.082-12.5c-11.117-7.207-17.999-16.329-17.999-23.821V50.061h27.12l6.027-7.696h55.909l6.026,7.696
					h27.119v126.07c0,7.492-6.881,16.614-17.998,23.821C171.173,208.014,155.862,212.452,140.511,212.452z M80.774,51.404v124.727
					c0,7.003,6.678,15.717,17.388,22.681c12.216,7.941,27.241,12.298,42.349,12.298c15.106,0,30.133-4.356,42.349-12.298
					c10.709-6.964,17.388-15.637,17.388-22.681V51.404h-26.428l-6.026-7.695h-54.605l-6.027,7.695H80.774z"/>
			</g>
			<g>
				
					<rect x="138.719" y="56.739" fill="#FFFFFF" stroke="#FFFFFF" stroke-width="0.3023" stroke-miterlimit="10" width="1.384" height="79.16"/>
			</g>
			<g>
				<g>
					<path fill="#FFFFFF" stroke="#FFFFFF" stroke-width="0.3023" stroke-miterlimit="10" d="M195.034,172.75l-55.623-36.525
						L85.62,171.569l-0.122-1.099c-0.041-0.408-0.082-0.774-0.082-1.141V56.087h110.189V169.33c0,0.773-0.123,1.589-0.326,2.484
						L195.034,172.75z M139.411,134.596l54.728,35.915c0.042-0.407,0.082-0.814,0.082-1.222V57.431H86.76v111.696L139.411,134.596z"
						/>
				</g>
				<g>
					<path fill="#FFFFFF" stroke="#FFFFFF" stroke-width="0.3023" stroke-miterlimit="10" d="M140.511,204.512
						c-14.048,0-28.545-4.885-39.865-13.478c-10.303-7.777-14.578-15.76-15.148-20.605l-0.041-0.406l53.995-35.427l55.949,36.729
						l-0.122,0.449c-1.385,6.026-6.962,13.233-14.903,19.261C169.055,199.585,154.519,204.512,140.511,204.512z M86.882,170.715
						c0.733,4.438,4.927,11.931,14.578,19.26c11.076,8.389,25.288,13.193,39.051,13.193c13.724,0,27.975-4.805,39.05-13.193
						c7.493-5.66,12.786-12.379,14.294-17.999l-54.402-35.711L86.882,170.715z"/>
				</g>
			</g>
		</g>
		<g>
			<g>
				<g>
					<path fill="#FFFFFF" d="M136.642,157.725c-6.719,1.791-10.709,8.714-8.918,15.474c1.792,6.719,8.714,10.709,15.474,8.918
						c6.72-1.791,10.709-8.714,8.917-15.474C150.283,159.924,143.36,155.933,136.642,157.725z M142.14,178.166
						c-4.561,1.223-9.243-1.466-10.466-6.025c-1.221-4.562,1.466-9.244,6.027-10.466c4.561-1.222,9.244,1.466,10.465,6.026
						C149.388,172.263,146.7,176.943,142.14,178.166z"/>
				</g>
				<g>
					<path fill="#FFFFFF" d="M145.927,168.313c0.896,3.338-1.1,6.759-4.397,7.655c-3.339,0.896-6.76-1.06-7.656-4.398
						s1.099-6.76,4.398-7.655C141.61,163.019,145.031,164.973,145.927,168.313z"/>
				</g>
			</g>
			<g>
				<path fill="#FFFFFF" d="M142.343,188.306l-0.53-2.892c-1.261,0.163-2.523,0.163-3.786,0l-0.53,2.851l-4.723-1.221l1.018-2.769
					c-1.14-0.49-2.24-1.142-3.258-1.915l-1.955,2.118l-3.461-3.463l2.24-1.872c-0.692-0.978-1.303-1.995-1.75-3.096l-2.729,0.979
					l-1.303-4.684l2.891-0.528c-0.163-1.222-0.163-2.443,0-3.624l-2.85-0.53l1.14-4.764l2.77,0.978
					c0.488-1.141,1.099-2.199,1.832-3.217l-2.199-1.873l3.38-3.503l1.914,2.239c1.018-0.773,2.118-1.425,3.299-1.913l-0.978-2.729
					l4.683-1.302l0.53,2.891c1.262-0.162,2.524-0.162,3.787,0l0.529-2.85l4.723,1.222l-1.019,2.769
					c1.141,0.488,2.241,1.14,3.259,1.913l1.914-2.199l3.461,3.463l-2.28,1.873c0.692,0.977,1.303,1.995,1.752,3.095l2.727-0.978
					l1.304,4.682l-2.891,0.53c0.162,1.222,0.162,2.442,0,3.624l2.85,0.53l-1.181,4.723l-2.77-0.977
					c-0.488,1.14-1.099,2.239-1.832,3.216l2.199,1.874l-3.379,3.502l-1.792-2.158c-1.02,0.773-2.118,1.425-3.299,1.913l0.977,2.729
					L142.343,188.306z M142.669,184.152l0.529,2.77l2.402-0.693l-0.937-2.605l0.489-0.204c1.425-0.529,2.728-1.303,3.908-2.281
					l0.407-0.325l1.832,2.117l1.752-1.792l-2.117-1.791l0.326-0.407c0.936-1.14,1.669-2.443,2.198-3.826l0.203-0.49l2.646,0.938
					l0.611-2.445l-2.728-0.488l0.08-0.529c0.204-1.466,0.204-2.932,0-4.356l-0.08-0.529l2.768-0.53l-0.691-2.401l-2.605,0.936
					l-0.244-0.529c-0.531-1.343-1.223-2.605-2.119-3.705l-0.326-0.407l2.159-1.791l-1.792-1.792l-1.832,2.076l-0.407-0.326
					c-1.182-0.977-2.483-1.709-3.869-2.279l-0.487-0.203l0.936-2.647l-2.442-0.651l-0.53,2.728l-0.529-0.081
					c-1.506-0.244-3.013-0.244-4.52,0l-0.529,0.081l-0.529-2.769l-2.402,0.692l0.937,2.606l-0.489,0.202
					c-1.425,0.529-2.729,1.304-3.909,2.281l-0.408,0.326l-1.833-2.117l-1.75,1.791l2.117,1.791l-0.326,0.407
					c-0.937,1.14-1.669,2.444-2.199,3.828l-0.204,0.488l-2.646-0.936l-0.611,2.442l2.729,0.489l-0.082,0.529
					c-0.204,1.466-0.204,2.932,0,4.355l0.082,0.53l-2.77,0.53l0.692,2.403l2.606-0.938l0.204,0.489
					c0.53,1.345,1.222,2.605,2.118,3.705l0.326,0.407l-2.159,1.791l1.792,1.792l1.833-2.076l0.407,0.326
					c1.181,0.976,2.484,1.71,3.869,2.28l0.488,0.203l-0.936,2.647l2.443,0.651l0.529-2.729l0.53,0.081
					c1.506,0.244,3.013,0.244,4.521,0L142.669,184.152z"/>
			</g>
		</g>
		<g>
			<rect x="113.146" y="25.75" fill="#FFFFFF" width="54.646" height="13.479"/>
			<rect x="99.709" y="16.1" fill="#FFFFFF" width="81.563" height="7.004"/>
		</g>
		<g>
			<path fill="#FFFFFF" stroke="#FFFFFF" stroke-width="0.2015" stroke-miterlimit="10" d="M131.634,122.542H89.203l4.602-8.348
				h33.228L131.634,122.542z M91.036,121.443h38.725l-3.379-6.149H94.416L91.036,121.443z"/>
		</g>
		<path fill="#FFFFFF" stroke="#FFFFFF" stroke-width="0.2015" stroke-miterlimit="10" d="M93.153,101.327
			c0,1.588,0.326,1.955,1.914,1.955c1.181,0,2.321,0,3.583,0c0.041,1.303,0.163,2.444-0.122,3.747c-1.058,0-2.117,0-3.257,0
			c0,2.484,0,4.845,0,7.248h30.54c0-2.484,0-4.845,0-7.37c-1.14,0-2.158,0-3.217,0c0-1.262,0-2.321,0-3.583
			c1.181,0,2.24,0.041,3.258,0c0.937-0.041,1.303-0.407,1.385-1.384c0.04-0.285,0-0.611,0-0.937c0-6.23,0-12.419,0-18.65
			c0-1.832,0-3.665,0-5.497c0-1.425-0.326-1.751-1.792-1.751c-0.123,0-0.244,0-0.407,0c-9.936,0-19.871,0-29.807,0
			c-0.326,0-0.611,0-0.937,0c-0.733,0.081-1.099,0.448-1.181,1.181c-0.041,0.245,0,0.529,0,0.773
			C93.153,85.161,93.153,93.224,93.153,101.327z M124.63,108.087c0,1.751,0,3.502,0,5.334c-9.406,0-18.731,0-28.097,0
			c-0.042-0.326-0.082-0.57-0.082-0.814c0-1.466,0-2.973,0-4.52C105.858,108.087,115.183,108.087,124.63,108.087z M99.831,103.363
			c7.208,0,14.333,0,21.582,0c0,1.222,0,2.28,0,3.38c-0.978,0.285-18.772,0.366-21.582,0.122
			C99.668,105.726,99.709,104.585,99.831,103.363z M94.293,76.284c10.587,0,21.134,0,31.762,0c0,8.592,0,17.143,0,25.817
			c-10.587,0-21.134,0-31.762,0C94.293,93.468,94.293,84.917,94.293,76.284z"/>
	</g>
	<g>
		<path opacity="0.3" enable-background="new    " d="M220.404,210.905L220.404,210.905c-2.24,1.303-4.521,2.606-6.801,3.786
			l1.913,3.789l-1.343,0.691l-4.235-2.606c-0.121,0.041-0.243,0.123-0.325,0.163l1.913,3.787l-1.262,0.611l-1.914-3.788
			c-0.366,0.163-0.733,0.368-1.101,0.529c0.083,0.163,0.165,0.325,0.245,0.53c0.407,0.896,0.529,1.669,0.367,2.442l5.009,10.751
			l12.175-12.787L220.404,210.905z"/>
	</g>
	<g>
		<path opacity="0.3" enable-background="new    " d="M72.02,221.614c-0.285-0.284-0.448-0.61-0.529-0.937
			c-0.082-0.326-0.082-0.65-0.041-0.936c0.081-0.448,0.326-1.018,0.651-1.792l0.326-0.733c-0.488-0.244-0.977-0.448-1.425-0.692
			l-0.692,1.344c-0.285,0.53-0.529,0.937-0.773,1.182c-0.326,0.326-0.734,0.487-1.182,0.57c-0.448,0.039-0.977-0.042-1.506-0.326
			c-0.652-0.326-1.059-0.774-1.222-1.304c-0.163-0.528-0.082-1.18,0.286-1.873l1.343,0.489c-0.163,0.406-0.244,0.691-0.244,0.896
			c0.041,0.327,0.163,0.529,0.489,0.691c0.285,0.164,0.57,0.164,0.773,0.083c0.204-0.122,0.448-0.447,0.733-0.979l0.733-1.425
			c-3.054-1.547-6.067-3.177-8.999-4.927c-0.041,0-0.082,0.041-0.082,0.041l-4.316,7.98l11.891,12.664l4.438-9.528
			C72.345,221.94,72.142,221.778,72.02,221.614z"/>
	</g>
	<g>
		<path fill="#FFFFFF" d="M114.897,228.74c-0.163-0.08-0.529-0.122-1.059-0.244l-0.733-0.123l-0.366,2.078l0.814,0.122
			c0.57,0.081,0.977,0.122,1.18,0.081c0.204-0.041,0.367-0.122,0.53-0.284c0.122-0.163,0.245-0.326,0.245-0.53
			c0.041-0.284,0-0.488-0.123-0.692C115.305,228.985,115.142,228.821,114.897,228.74z"/>
		<path fill="#FFFFFF" d="M154.315,231.144c0-0.245-0.122-0.448-0.245-0.57c-0.163-0.163-0.326-0.244-0.57-0.244
			c-0.122,0-0.488,0-1.1,0.041l-1.181,0.081l0.164,1.873l1.099-0.082c0.733-0.04,1.181-0.122,1.344-0.203s0.325-0.202,0.408-0.367
			C154.315,231.55,154.355,231.347,154.315,231.144z"/>
		<polygon fill="#FFFFFF" points="126.87,233.464 128.905,233.628 128.091,230.776 		"/>
		<path fill="#FFFFFF" d="M175.489,227.397c-0.449-0.326-0.978-0.448-1.589-0.285c-0.609,0.162-1.058,0.447-1.343,0.936
			c-0.285,0.49-0.326,1.182-0.162,1.996c0.162,0.814,0.487,1.384,0.976,1.75c0.49,0.368,1.019,0.449,1.589,0.326
			c0.57-0.122,1.019-0.448,1.304-0.936c0.284-0.489,0.326-1.182,0.162-2.037C176.264,228.293,175.937,227.723,175.489,227.397z"/>
		<path fill="#FFFFFF" d="M216.372,204.024c-22.233,13.151-48.172,20.726-75.861,20.726c-27.69,0-53.629-7.574-75.862-20.726
			l-8.633,14.739c24.758,14.66,53.669,23.048,84.535,23.048s59.737-8.428,84.536-23.048L216.372,204.024z M69.495,219.09
			c-0.326,0.326-0.733,0.488-1.181,0.569c-0.448,0.042-0.978-0.039-1.507-0.325c-0.651-0.325-1.059-0.773-1.222-1.303
			s-0.082-1.181,0.285-1.874l1.344,0.489c-0.163,0.408-0.244,0.692-0.244,0.896c0.041,0.326,0.163,0.53,0.488,0.693
			c0.285,0.163,0.57,0.163,0.774,0.08c0.204-0.122,0.448-0.447,0.733-0.977l2.199-4.275l1.344,0.693l-2.158,4.193
			C70.024,218.438,69.739,218.847,69.495,219.09z M76.621,222.063c-0.245,0.286-0.489,0.529-0.814,0.651s-0.651,0.204-1.059,0.204
			c-0.408,0-0.855-0.163-1.384-0.408c-0.652-0.284-1.1-0.609-1.385-0.896c-0.285-0.284-0.448-0.61-0.529-0.937
			c-0.082-0.326-0.082-0.65-0.041-0.936c0.082-0.448,0.326-1.018,0.652-1.792l1.669-3.624l1.384,0.61l-1.669,3.666
			c-0.285,0.569-0.407,0.976-0.448,1.14c-0.081,0.285-0.04,0.569,0.123,0.854c0.163,0.286,0.408,0.488,0.773,0.651
			c0.408,0.163,0.733,0.244,0.978,0.163c0.285-0.081,0.488-0.203,0.611-0.407c0.163-0.203,0.326-0.57,0.57-1.14l1.71-3.747
			l1.384,0.611l-1.629,3.543C77.15,221.207,76.824,221.736,76.621,222.063z M84.725,221.411l-1.426-0.488
			c0.081-0.367,0.041-0.693-0.082-0.938c-0.122-0.243-0.407-0.448-0.773-0.569c-0.408-0.162-0.773-0.205-1.059-0.122
			c-0.204,0.04-0.326,0.162-0.407,0.326c-0.082,0.162-0.041,0.325,0.04,0.488c0.123,0.203,0.489,0.529,1.1,0.977
			c0.61,0.448,1.059,0.815,1.303,1.1c0.244,0.285,0.407,0.651,0.489,1.019c0.082,0.367,0,0.773-0.163,1.221
			c-0.163,0.408-0.407,0.733-0.773,0.978c-0.367,0.244-0.774,0.407-1.222,0.407c-0.489,0-1.018-0.122-1.588-0.366
			c-0.855-0.366-1.466-0.815-1.751-1.425c-0.285-0.612-0.326-1.304-0.122-2.117l1.425,0.406c-0.122,0.49-0.081,0.896,0.082,1.222
			c0.163,0.325,0.448,0.57,0.896,0.733c0.448,0.162,0.814,0.204,1.14,0.122c0.285-0.082,0.488-0.285,0.611-0.53
			c0.082-0.161,0.082-0.325,0.04-0.487c-0.04-0.163-0.163-0.326-0.366-0.489c-0.122-0.122-0.489-0.367-0.978-0.732
			c-0.651-0.488-1.1-0.937-1.303-1.304c-0.285-0.569-0.285-1.099-0.081-1.63c0.122-0.364,0.366-0.65,0.692-0.854
			c0.326-0.245,0.692-0.326,1.14-0.367c0.448,0,0.937,0.082,1.466,0.325c0.855,0.367,1.426,0.815,1.71,1.344
			C84.928,220.189,84.968,220.76,84.725,221.411z M87.29,228.008l-1.426-0.488l2.077-5.823l-2.077-0.733l0.408-1.181l5.578,1.996
			l-0.407,1.18l-2.077-0.732L87.29,228.008z M90.384,229.025l2.28-7.085l1.426,0.447l-2.281,7.085L90.384,229.025z M98.365,230.939
			c-0.611,0.245-1.303,0.245-2.077,0.041c-0.937-0.285-1.628-0.814-2.076-1.629c-0.408-0.813-0.489-1.792-0.163-2.933
			c0.325-1.18,0.896-2.035,1.71-2.523c0.814-0.49,1.71-0.57,2.688-0.286c0.855,0.244,1.507,0.692,1.914,1.386
			c0.244,0.406,0.367,0.896,0.367,1.506l-1.507-0.082c0.041-0.406-0.082-0.732-0.285-1.018c-0.204-0.284-0.489-0.488-0.896-0.61
			c-0.53-0.164-1.018-0.081-1.466,0.204c-0.448,0.284-0.773,0.855-1.018,1.709c-0.245,0.896-0.285,1.589-0.082,2.078
			c0.205,0.488,0.57,0.773,1.1,0.936c0.366,0.122,0.733,0.082,1.099-0.081c0.326-0.164,0.652-0.489,0.937-0.977l1.262,0.854
			C99.465,230.247,98.936,230.695,98.365,230.939z M107.527,227.316l-3.91-0.938l-0.366,1.588l3.624,0.854l-0.285,1.223
			l-3.624-0.854l-0.448,1.954l4.031,0.937l-0.285,1.222l-5.497-1.304l1.709-7.248l5.375,1.263L107.527,227.316z M117.097,230.125
			c-0.082,0.448-0.204,0.814-0.448,1.1c-0.204,0.285-0.448,0.489-0.733,0.612c-0.285,0.121-0.569,0.202-0.814,0.202
			c-0.367,0-0.896-0.041-1.547-0.163l-0.978-0.162l-0.488,2.769l-1.467-0.244l1.263-7.33l2.362,0.408
			c0.896,0.161,1.466,0.283,1.751,0.406c0.407,0.164,0.692,0.489,0.937,0.896C117.137,229.025,117.178,229.556,117.097,230.125z
			 M123.408,231.55l-0.163,1.263l-3.706-0.447l-0.244,1.995l4.112,0.529l-0.163,1.263l-5.62-0.693l0.937-7.369l5.457,0.692
			l-0.163,1.262l-3.99-0.488l-0.204,1.629L123.408,231.55z M129.802,236.64l-0.53-1.75l-2.972-0.244l-0.733,1.629l-1.588-0.082
			l3.461-7.207l1.588,0.122l2.402,7.654L129.802,236.64z M134.28,235.134c0.326,0.407,0.774,0.61,1.303,0.652
			c0.407,0,0.733-0.123,1.059-0.367s0.53-0.651,0.652-1.181l1.425,0.488c-0.245,0.814-0.652,1.385-1.181,1.791
			c-0.529,0.367-1.181,0.57-1.995,0.53c-0.978-0.041-1.792-0.408-2.403-1.1c-0.611-0.691-0.896-1.629-0.854-2.81
			c0.041-1.222,0.406-2.199,1.059-2.85c0.651-0.652,1.506-0.978,2.565-0.938c0.896,0.04,1.629,0.326,2.199,0.855
			c0.326,0.325,0.569,0.773,0.733,1.385l-1.507,0.325c-0.081-0.407-0.244-0.692-0.529-0.937s-0.611-0.367-1.018-0.367
			c-0.57,0-1.018,0.163-1.344,0.571c-0.366,0.365-0.529,1.018-0.57,1.913C133.792,234.034,133.955,234.727,134.28,235.134z
			 M140.144,237.007l-0.121-7.451l5.497-0.083l0.04,1.264l-4.03,0.082l0.04,1.627l3.746-0.039v1.261l-3.746,0.042l0.041,2.035
			l4.153-0.081v1.263L140.144,237.007z M155.089,236.356l-1.222-1.549c-0.447-0.528-0.733-0.896-0.855-1.018
			c-0.163-0.123-0.325-0.245-0.489-0.284c-0.162-0.042-0.407-0.042-0.773-0.042l-0.284,0.042l0.244,3.094l-1.508,0.122l-0.569-7.41
			l3.136-0.245c0.773-0.081,1.384-0.041,1.751,0.081c0.367,0.123,0.693,0.325,0.937,0.652c0.244,0.325,0.366,0.691,0.407,1.14
			c0.041,0.57-0.081,1.019-0.367,1.426c-0.283,0.406-0.773,0.65-1.425,0.814c0.325,0.162,0.611,0.365,0.854,0.57
			c0.244,0.203,0.53,0.569,0.938,1.14l1.019,1.303L155.089,236.356z M157.898,236.07l-0.938-7.371l5.457-0.691l0.164,1.263
			l-3.992,0.488l0.204,1.629l3.706-0.448l0.162,1.263l-3.705,0.447l0.245,1.996l4.111-0.53l0.164,1.264L157.898,236.07z
			 M168.403,234.563l-1.587,0.285l-3.869-6.882l1.588-0.285l2.77,5.131l0.854-5.741l1.589-0.285L168.403,234.563z M177.607,231.794
			c-0.489,0.816-1.263,1.304-2.322,1.548c-1.099,0.244-1.994,0.082-2.81-0.406c-0.773-0.529-1.303-1.344-1.547-2.525
			c-0.163-0.732-0.204-1.385-0.082-1.955c0.082-0.407,0.244-0.773,0.449-1.139c0.203-0.367,0.488-0.652,0.813-0.856
			c0.408-0.284,0.896-0.488,1.507-0.651c1.06-0.244,1.995-0.081,2.769,0.448c0.774,0.529,1.303,1.386,1.588,2.565
			C178.217,230.003,178.095,230.98,177.607,231.794z M180.131,232.08l-1.914-7.127l1.467-0.406l1.588,5.904l3.625-0.979l0.324,1.223
			L180.131,232.08z M191.289,228.09c-0.122,0.326-0.367,0.57-0.651,0.854c-0.285,0.245-0.733,0.489-1.303,0.651
			c-0.693,0.204-1.222,0.285-1.63,0.244c-0.406-0.04-0.732-0.162-1.018-0.325c-0.285-0.203-0.488-0.407-0.651-0.651
			c-0.204-0.367-0.448-0.977-0.692-1.751l-1.181-3.787l1.425-0.448l1.222,3.827c0.203,0.612,0.325,1.019,0.447,1.183
			c0.164,0.284,0.367,0.447,0.651,0.568c0.286,0.122,0.611,0.083,1.018-0.039c0.409-0.123,0.693-0.326,0.856-0.529
			c0.163-0.244,0.204-0.489,0.163-0.734c-0.041-0.244-0.122-0.651-0.326-1.222l-1.263-3.908l1.426-0.448l1.18,3.705
			c0.286,0.855,0.408,1.467,0.449,1.833C191.451,227.478,191.411,227.765,191.289,228.09z M195.32,227.438l-2.117-5.781
			l-2.077,0.773l-0.448-1.182l5.538-2.037l0.447,1.183l-2.076,0.773l2.119,5.782L195.32,227.438z M199.759,225.728l-2.77-6.923
			l1.386-0.569l2.768,6.922L199.759,225.728z M207.698,221.37c-0.326,0.896-0.977,1.548-1.995,1.996
			c-1.018,0.448-1.954,0.487-2.809,0.162c-0.855-0.366-1.548-1.059-2.037-2.158c-0.325-0.692-0.447-1.303-0.447-1.872
			c0-0.408,0.081-0.815,0.203-1.222c0.164-0.408,0.367-0.734,0.611-1.019c0.326-0.367,0.774-0.692,1.345-0.937
			c1.018-0.448,1.953-0.488,2.809-0.122c0.896,0.366,1.547,1.099,2.037,2.199C207.943,219.498,208.024,220.516,207.698,221.37z
			 M214.133,219.211l-4.846-2.972l2.199,4.316l-1.263,0.611l-3.339-6.637l1.304-0.652l4.968,3.055l-2.24-4.438l1.263-0.611
			l3.338,6.637L214.133,219.211z"/>
		<path fill="#FFFFFF" d="M204.727,217.502c-0.53-0.244-1.059-0.204-1.629,0.04s-0.938,0.651-1.1,1.183
			c-0.163,0.529-0.081,1.221,0.245,1.994s0.773,1.263,1.303,1.507s1.059,0.244,1.629,0c0.528-0.244,0.896-0.651,1.1-1.181
			c0.162-0.529,0.08-1.222-0.245-1.995C205.663,218.235,205.256,217.707,204.727,217.502z"/>
	</g>
</g>
</svg>
